<svg width="116" height="172" viewBox="0 0 116 172" fill="none" xmlns="http://www.w3.org/2000/svg">
<path d="M30.0605 46.3397L43.0646 51.4987C43.0646 51.4987 40.3319 42.4703 30.0605 46.3397Z" fill="#CABEF2"/>
<path d="M23.1816 5.43545C23.1816 5.43545 63.3246 -1.75041 106.671 29.2041C68.9785 73.2405 36.8453 63.4751 32.1337 63.1987L23.1816 5.43545Z" fill="white"/>
<path d="M22.3331 0L30.0601 46.3396L7.72705 166.841L0 120.593L22.3331 0Z" fill="#FEA419"/>
<path d="M43.0637 51.4987L30.0596 46.3396L7.72656 166.841L20.7306 172L43.0637 51.4987Z" fill="#FD521B"/>
<path d="M116 26.3481L43.0645 51.4986L20.7314 172L93.6672 146.942L116 26.3481Z" fill="#FEA419"/>
<path d="M49.2832 40.5356L91.0281 19.5308" stroke="#1D1A23" stroke-width="1.8" stroke-miterlimit="10" stroke-linecap="round" stroke-linejoin="round"/>
<path d="M49.2832 35.653L68.4124 10.0418" stroke="#1D1A23" stroke-width="1.8" stroke-miterlimit="10" stroke-linecap="round" stroke-linejoin="round"/>
<path d="M43.0645 39.1537L49.2838 5.80396" stroke="#1D1A23" stroke-width="1.8" stroke-miterlimit="10" stroke-linecap="round" stroke-linejoin="round"/>
<path d="M39.0117 32.2442L41.3675 4.69836" stroke="#1D1A23" stroke-width="1.8" stroke-miterlimit="10" stroke-linecap="round" stroke-linejoin="round"/>
<path d="M34.677 56.4734L14.9824 163.34" stroke="#1D1A23" stroke-width="1.8" stroke-miterlimit="10" stroke-linecap="round" stroke-linejoin="round"/>
<path d="M98.8496 32.2442L116 26.3481L112.325 46.3395L98.8496 32.2442Z" fill="#7B5DDF"/>
<path d="M96.8714 129.714L93.6675 146.942L78.1191 152.285L96.8714 129.714Z" fill="#7B5DDF"/>
<path d="M22.3333 0L24.2179 12.6213L18.6582 19.5308L22.3333 0Z" fill="#7B5DDF"/>
<path d="M0 120.594L2.35581 107.419L1.22502 127.779L0 120.594Z" fill="#7B5DDF"/>
<path d="M58.8008 81.5319L89.1436 70.4767" stroke="#1D1A23" stroke-width="1.8" stroke-miterlimit="10" stroke-linecap="round" stroke-linejoin="round"/>
<path d="M50.6973 94.9824L94.1384 78.9524" stroke="#1D1A23" stroke-width="1.8" stroke-miterlimit="10" stroke-linecap="round" stroke-linejoin="round"/>
</svg>
