<svg width="116" height="193" viewBox="0 0 116 193" fill="none" xmlns="http://www.w3.org/2000/svg">
<path d="M20.8087 4.81671L0.043457 65.6205L46.4054 192.101L67.2734 131.297L20.8087 4.81671Z" fill="#7B5DDF"/>
<path d="M4.46436 64.0979L22.5568 9.38465L65.9376 4.3092L20.2953 89.9827L4.46436 64.0979Z" fill="white"/>
<path d="M14.0144 60.6342L0 65.6459L46.3786 192.102L60.393 187.09L14.0144 60.6342Z" fill="#FFB6C8"/>
<path d="M69.638 0.350342L14.0243 60.6466L60.489 187.127L116 126.932L69.638 0.350342Z" fill="#7B5DDF"/>
<path d="M56.0685 5.52728L24.8179 43.1871" stroke="#1D1A23" stroke-width="1.8" stroke-miterlimit="10" stroke-linecap="round" stroke-linejoin="round"/>
<path d="M32.4252 12.3284L17.9307 43.9991" stroke="#1D1A23" stroke-width="1.8" stroke-miterlimit="10" stroke-linecap="round" stroke-linejoin="round"/>
<path d="M32.7339 23.0883L41.3689 6.94843" stroke="#1D1A23" stroke-width="1.8" stroke-miterlimit="10" stroke-linecap="round" stroke-linejoin="round"/>
<path d="M36.5371 77.8016L70.9745 43.4916" stroke="#1D1A23" stroke-width="1.8" stroke-miterlimit="10" stroke-linecap="round" stroke-linejoin="round"/>
<path d="M37.3599 95.7687L79.8155 54.5561" stroke="#1D1A23" stroke-width="1.8" stroke-miterlimit="10" stroke-linecap="round" stroke-linejoin="round"/>
<path d="M81.8711 127.845C81.8711 127.845 50.6205 113.431 53.4988 101.25C56.3772 89.0691 72.3108 98.9154 72.3108 98.9154C72.3108 98.9154 65.4234 83.2831 76.0116 81.6589C86.497 80.0348 89.1697 102.164 81.8711 127.845Z" fill="#FEA419"/>
</svg>
