<svg width="191" height="132" viewBox="0 0 191 132" fill="none" xmlns="http://www.w3.org/2000/svg">
<path d="M160.028 0.170627L25.7302 22.708L29.8585 47.8365L164.156 25.2991L160.028 0.170627Z" fill="#FEA419"/>
<path d="M42.6995 19.8366L35.554 21.0364L39.5546 45.3735L46.7002 44.1736L42.6995 19.8366Z" fill="white"/>
<path d="M150.651 1.80592L143.506 3.00507L147.504 27.3421L154.65 26.143L150.651 1.80592Z" fill="white"/>
<path d="M186.872 78.4699L17.6292 106.872L21.7574 132L191 103.598L186.872 78.4699Z" fill="#FFB6C8"/>
<path d="M159.674 39.4546L22.5381 62.4684L29.5106 104.91L166.647 81.896L159.674 39.4546Z" fill="#4C398D"/>
<path d="M177.661 22.2251L0 52.0395L2.38918 66.5824L180.05 36.768L177.661 22.2251Z" fill="#FD521B"/>
<path d="M9.61621 57.8826L170.558 30.906" stroke="#1D1A23" stroke-width="1.8" stroke-miterlimit="10" stroke-linecap="round" stroke-linejoin="round"/>
<path d="M40.8718 70.1174L44.3447 91.6786" stroke="#1D1A23" stroke-width="1.8" stroke-miterlimit="10" stroke-linecap="round" stroke-linejoin="round"/>
<path d="M50.6948 68.4125L54.1677 90.0741" stroke="#1D1A23" stroke-width="1.8" stroke-miterlimit="10" stroke-linecap="round" stroke-linejoin="round"/>
<path d="M116.084 57.4815L119.656 79.0428" stroke="#1D1A23" stroke-width="1.8" stroke-miterlimit="10" stroke-linecap="round" stroke-linejoin="round"/>
<path d="M125.907 55.877L129.479 77.4382" stroke="#1D1A23" stroke-width="1.8" stroke-miterlimit="10" stroke-linecap="round" stroke-linejoin="round"/>
<path d="M74.1119 82.7533L69.1507 83.5556L67.4639 73.5271L102.093 67.7106L102.986 73.2262L73.3181 78.2405L74.1119 82.7533Z" fill="white"/>
<path d="M55.9386 100.495L36.949 103.682L41.0772 128.811L60.0668 125.624L55.9386 100.495Z" fill="#FD521B"/>
<path d="M73.219 110.432L173.535 93.584" stroke="#1D1A23" stroke-width="1.8" stroke-miterlimit="10" stroke-linecap="round" stroke-linejoin="round"/>
<path d="M58.3354 26.9949L130.571 14.8604" stroke="#1D1A23" stroke-width="1.8" stroke-miterlimit="10" stroke-linecap="round" stroke-linejoin="round"/>
<path d="M59.3276 33.1123L131.563 20.9778" stroke="#1D1A23" stroke-width="1.8" stroke-miterlimit="10" stroke-linecap="round" stroke-linejoin="round"/>
</svg>
