<svg width="145" height="160" viewBox="0 0 145 160" fill="none" xmlns="http://www.w3.org/2000/svg">
<path d="M66.5585 53.7596C66.5585 53.7596 66.7586 50.1623 59.5548 48.0639C52.351 45.8655 50.55 48.9632 50.55 48.9632L66.5585 53.7596Z" fill="#CABEF2"/>
<path d="M139.797 47.2647L107.08 24.2819L59.5547 48.0641L35.5419 2.89795L-6.8806 3.29764L52.9512 70.2475L139.797 47.2647Z" fill="white"/>
<path d="M34.6414 159.98L113.083 153.085L145 46.8649L66.5583 53.7597L34.6414 159.98Z" fill="#FA8B89"/>
<path d="M-42.9999 106.22L18.6329 155.184L50.5498 48.9633L-11.083 0L-42.9999 106.22Z" fill="#FA8B89"/>
<path d="M115.784 41.3691L58.5538 53.7599" stroke="#1D1A23" stroke-width="1.8" stroke-miterlimit="10" stroke-linecap="round" stroke-linejoin="round"/>
<path d="M92.0721 14.8889L57.7539 49.9626L107.08 24.2819" stroke="#1D1A23" stroke-width="1.8" stroke-miterlimit="10" stroke-linecap="round" stroke-linejoin="round"/>
<path d="M35.5414 2.89795L59.5542 48.0641" stroke="#1D1A23" stroke-width="1.8" stroke-miterlimit="10" stroke-linecap="round" stroke-linejoin="round"/>
<path d="M17.1324 11.6914L55.7529 50.5623" stroke="#1D1A23" stroke-width="1.8" stroke-miterlimit="10" stroke-linecap="round" stroke-linejoin="round"/>
<path d="M50.5629 48.9739L66.5649 53.7749L34.6133 160L18.6112 155.199L50.5629 48.9739Z" fill="#7B5DDF"/>
<path d="M66.5581 53.7599C66.5581 53.7599 65.9578 46.6652 59.5544 45.3661C53.151 44.0671 50.5496 48.9635 50.5496 48.9635L66.5581 53.7599Z" fill="#CABEF2"/>
<path d="M33.2407 58.3562L-8.3814 24.2817L-14.5847 46.8648L27.2375 79.7402L33.2407 58.3562Z" fill="#7B5DDF"/>
<path d="M128.792 64.052L76.2636 68.5486" stroke="#1D1A23" stroke-width="1.8" stroke-miterlimit="10" stroke-linecap="round" stroke-linejoin="round"/>
<path d="M125.79 75.3435L73.2616 79.8401" stroke="#1D1A23" stroke-width="1.8" stroke-miterlimit="10" stroke-linecap="round" stroke-linejoin="round"/>
<path d="M122.788 86.9348L70.2602 91.4314" stroke="#1D1A23" stroke-width="1.8" stroke-miterlimit="10" stroke-linecap="round" stroke-linejoin="round"/>
</svg>
