<svg width="192" height="104" viewBox="0 0 192 104" fill="none" xmlns="http://www.w3.org/2000/svg">
<path d="M129.769 86.2289L3.19067 63.3621L0.00010194 80.9368L126.578 103.804L129.769 86.2289Z" fill="#7B5DDF"/>
<path d="M192 66.7734L65.4753 43.9669L3.2229 63.3845L129.748 86.2825L192 66.7734Z" fill="#FD521B"/>
<path d="M129.748 86.2825L126.534 103.868L188.786 84.4506L192 66.8649L129.748 86.2825Z" fill="white"/>
<path d="M128.024 67.8232L19.5159 48.2208L16.7834 63.2719L125.292 82.8743L128.024 67.8232Z" fill="#FFB6C8"/>
<path d="M181.349 51.1111L72.8207 31.5104L19.4746 48.1801L128.003 67.7809L181.349 51.1111Z" fill="#FEA419"/>
<path d="M128.003 67.8725L125.249 82.8936L178.595 66.2238L181.349 51.2027L128.003 67.8725Z" fill="white"/>
<path d="M132.715 30.4782L41.5532 14.0096L35.7938 45.7342L126.956 62.2028L132.715 30.4782Z" fill="#7B5DDF"/>
<path d="M177.493 16.4892L86.4097 0.00262451L41.6027 14.0162L132.686 30.5028L177.493 16.4892Z" fill="#FD521B"/>
<path d="M132.686 30.5028L126.901 62.2853L171.8 48.2717L177.493 16.4892L132.686 30.5028Z" fill="white"/>
<path d="M49.499 26.5644L121.025 38.105" stroke="#1D1A23" stroke-width="1.8" stroke-miterlimit="10" stroke-linecap="round" stroke-linejoin="round"/>
<path d="M60.6089 39.3873L102.202 46.8978" stroke="#1D1A23" stroke-width="1.8" stroke-miterlimit="10" stroke-linecap="round" stroke-linejoin="round"/>
<path d="M152.243 35.7236L175.197 29.3121" stroke="#1D1A23" stroke-width="1.8" stroke-miterlimit="10" stroke-linecap="round" stroke-linejoin="round"/>
<path d="M141.959 46.8978L169.046 39.3873" stroke="#1D1A23" stroke-width="1.8" stroke-miterlimit="10" stroke-linecap="round" stroke-linejoin="round"/>
<path d="M9.37476 74.1008L119.097 94.0679" stroke="#1D1A23" stroke-width="1.8" stroke-miterlimit="10" stroke-linecap="round" stroke-linejoin="round"/>
<path d="M28.0137 65.3078L30.1255 50.1035L56.6608 54.8663L54.6408 70.0706L28.0137 65.3078Z" fill="#7B5DDF"/>
<path d="M46.6526 59.6291L43.3472 60.7282V64.2087L41.3272 61.3694L38.0217 62.4685L40.0417 59.6291L38.0217 56.8814L41.3272 57.8889L43.3472 55.1411V58.53L46.6526 59.6291Z" fill="#1D1A23"/>
<path d="M148.203 88.1144L190.715 74.1008" stroke="#1D1A23" stroke-width="1.8" stroke-miterlimit="10" stroke-linecap="round" stroke-linejoin="round"/>
<path d="M161.517 88.1143L189.796 79.1383" stroke="#1D1A23" stroke-width="1.8" stroke-miterlimit="10" stroke-linecap="round" stroke-linejoin="round"/>
<path d="M141.959 69.2463L180.064 58.3468" stroke="#1D1A23" stroke-width="1.8" stroke-miterlimit="10" stroke-linecap="round" stroke-linejoin="round"/>
<path d="M91.1842 4.85699L67.7708 12.9171L84.2979 16.0313L105.6 7.78796L91.1842 4.85699Z" fill="#7B5DDF"/>
</svg>
