<svg width="400" height="252" viewBox="0 0 400 252" fill="none" xmlns="http://www.w3.org/2000/svg">
<path d="M161.36 87.486L190.546 122.571C191.217 123.41 192.391 123.41 193.062 122.571L236.506 71.7061C237.009 71.0346 237.009 70.1953 236.506 69.6917L207.32 34.6066C206.649 33.7672 205.475 33.7672 204.804 34.6066L161.36 85.4716C160.857 85.9752 160.857 86.8145 161.36 87.486Z" fill="#FEA419"/>
<path d="M165.722 87.8217L192.392 119.885C193.063 120.725 194.237 120.725 194.908 119.885L234.661 73.2169C235.165 72.5455 235.165 71.7061 234.661 71.2025L207.991 38.9712C207.32 38.1318 206.146 38.1318 205.475 38.9712L165.722 85.6394C165.218 86.3109 165.218 87.1503 165.722 87.8217Z" fill="white"/>
<path d="M241.203 250.993L245.061 218.09L251.771 223.798L266.867 217.083C266.867 217.083 265.022 213.557 264.686 209.529C264.519 207.01 266.699 204.828 269.383 205.164L276.428 206.003C277.602 206.171 278.608 207.178 278.608 208.353L277.937 215.236L295.047 223.63L310.982 224.301C318.194 224.637 324.233 230.177 324.736 237.227L325.742 252L241.203 250.993Z" fill="#1D1A23"/>
<path d="M242.545 242.599C242.377 242.431 242.209 242.264 242.209 242.096C242.209 241.76 242.377 241.592 242.712 241.592L325.071 243.271C325.407 243.271 325.574 243.439 325.574 243.774C325.574 244.11 325.407 244.278 325.071 244.278L242.712 242.599C242.545 242.767 242.545 242.767 242.545 242.599Z" fill="#1D1A23"/>
<path d="M284.815 230.177C284.479 230.009 284.479 229.673 284.647 229.505C289.008 222.119 295.047 223.126 295.382 223.126C295.717 223.126 295.885 223.462 295.885 223.798C295.885 224.133 295.55 224.301 295.214 224.301C295.047 224.301 289.511 223.462 285.653 230.177C285.318 230.345 284.982 230.345 284.815 230.177Z" fill="#1D1A23"/>
<path d="M275.253 225.476C275.086 225.308 274.918 225.14 274.918 224.805C277.434 217.251 284.814 218.09 284.814 218.09C285.15 218.09 285.318 218.426 285.318 218.594C285.318 218.929 284.982 219.097 284.814 219.097C284.479 219.097 278.105 218.426 275.924 225.14C275.924 225.476 275.589 225.644 275.253 225.476Z" fill="#1D1A23"/>
<path d="M252.274 174.443L274.079 222.287L253.783 232.023L228.958 189.72L252.274 174.443Z" fill="#1D1A23"/>
<path d="M162.87 120.221C162.87 120.221 168.573 94.2008 186.521 94.8723L188.366 99.4048L174.276 109.813L162.87 120.221Z" fill="#F4BD98"/>
<path d="M173.941 93.5294L190.547 122.068C191.05 123.075 192.392 123.075 193.23 122.235L236.507 71.3704C237.01 70.8668 237.01 70.1953 236.674 69.5238L220.068 40.9857C219.565 39.9785 218.223 39.9785 217.384 40.8179L174.108 91.6829C173.605 92.1865 173.605 92.858 173.941 93.5294Z" fill="#FEA419"/>
<path d="M273.409 197.778L221.075 117.367C211.346 104.441 191.889 104.777 182.663 118.039L107.181 245.621C107.181 245.621 131.503 262.408 162.87 218.594C172.599 204.996 201.45 152.452 201.45 152.452L236.674 218.594L273.409 197.778Z" fill="#1D1A23"/>
<path d="M166.56 135.329C166.56 135.329 198.933 111.324 204.469 101.923C207.153 97.2225 205.978 96.3832 205.978 96.3832L163.541 128.111L166.56 135.329Z" fill="#F4BD98"/>
<path d="M172.095 126.936C172.095 126.936 199.269 107.127 205.307 97.5583C208.326 92.8579 206.985 91.8507 206.985 91.8507L167.566 124.082L172.095 126.936Z" fill="#F4BD98"/>
<mask id="mask0_103_893" style="mask-type:luminance" maskUnits="userSpaceOnUse" x="167" y="91" width="41" height="36">
<path d="M172.095 126.936C172.095 126.936 199.269 107.127 205.307 97.5583C208.326 92.8579 206.985 91.8507 206.985 91.8507L167.566 124.082L172.095 126.936Z" fill="white"/>
</mask>
<g mask="url(#mask0_103_893)">
<path d="M206.314 97.0548C206.817 96.7191 207.32 96.3833 207.656 95.7118C208.662 94.3689 208.662 92.858 207.991 92.3544C207.152 91.8508 205.81 92.3544 204.804 93.6974C203.798 95.0403 203.798 96.5512 204.469 97.0548C204.972 97.3905 205.643 97.3905 206.314 97.0548ZM206.481 93.0259C206.985 92.858 207.32 92.6901 207.488 92.858C207.991 93.1938 207.823 94.201 206.985 95.3761C206.146 96.3833 205.14 96.8869 204.804 96.5512C204.301 96.2154 204.469 95.2082 205.307 94.0331C205.81 93.5295 206.146 93.1938 206.481 93.0259Z" fill="#1D1A23"/>
</g>
<path d="M167.063 128.447C167.063 128.447 200.443 102.762 206.481 93.1937C209.501 88.4933 208.159 87.486 208.159 87.486C206.985 86.1431 204.972 86.1431 203.63 87.3182L162.87 124.25L167.063 128.447Z" fill="#F4BD98"/>
<path d="M161.025 126.936C161.025 126.936 194.405 101.251 200.443 91.6828C203.462 86.9824 202.12 85.9752 202.12 85.9752C200.946 84.6322 198.933 84.6322 197.592 85.8073L156.832 122.739L161.025 126.936Z" fill="#F4BD98"/>
<path d="M190.379 109.813C199.101 102.259 204.636 96.719 206.649 93.3616C206.985 92.858 207.32 92.3544 207.488 91.8507C207.656 91.6829 207.488 91.515 207.32 91.3471C207.152 91.1792 206.985 91.3471 206.817 91.515C206.649 92.0186 206.314 92.5222 205.978 93.0258C203.966 96.2154 198.43 101.755 189.876 109.309C189.708 109.477 189.708 109.645 189.876 109.813C190.043 109.813 190.211 109.981 190.379 109.813Z" fill="#1D1A23"/>
<mask id="mask1_103_893" style="mask-type:luminance" maskUnits="userSpaceOnUse" x="156" y="84" width="47" height="43">
<path d="M161.025 126.936C161.025 126.936 194.405 101.251 200.443 91.6828C203.462 86.9824 202.12 85.9752 202.12 85.9752C200.946 84.6322 198.933 84.6322 197.592 85.8073L156.832 122.739L161.025 126.936Z" fill="white"/>
</mask>
<g mask="url(#mask1_103_893)">
<path d="M201.114 90.3398C201.617 90.1719 201.953 89.6683 202.456 89.1647C203.462 87.8217 203.63 86.3109 202.624 85.6394C201.785 84.9679 200.275 85.4715 199.269 86.8145C198.263 88.1575 198.095 89.6683 199.101 90.3398C199.604 90.6755 200.108 90.6755 200.779 90.5077C200.946 90.3398 200.946 90.3398 201.114 90.3398ZM200.946 86.3109C201.45 85.9751 201.953 85.9751 202.288 86.3109C202.791 86.8145 202.624 87.9896 201.953 88.8289C201.617 89.3326 201.114 89.6683 200.611 89.8362C200.108 90.004 199.772 90.004 199.604 89.8362C199.101 89.3326 199.269 88.1575 199.94 87.3181C200.108 86.8145 200.443 86.4787 200.946 86.3109Z" fill="#1D1A23"/>
</g>
<mask id="mask2_103_893" style="mask-type:luminance" maskUnits="userSpaceOnUse" x="162" y="86" width="47" height="43">
<path d="M167.063 128.447C167.063 128.447 200.443 102.762 206.481 93.1937C209.501 88.4933 208.159 87.486 208.159 87.486C206.985 86.1431 204.972 86.1431 203.63 87.3182L162.87 124.25L167.063 128.447Z" fill="white"/>
</mask>
<g mask="url(#mask2_103_893)">
<path d="M206.984 92.3544C207.488 92.1865 207.823 91.6829 208.326 91.1793C209.333 89.8363 209.501 88.3255 208.494 87.654C207.991 87.3182 207.488 87.3183 206.817 87.4861C206.146 87.654 205.643 88.1576 205.139 88.6612C204.133 90.0042 203.965 91.515 204.972 92.1865C205.475 92.5223 205.978 92.5223 206.649 92.3544C206.649 92.5223 206.817 92.3544 206.984 92.3544ZM206.649 88.3255C206.817 88.3255 206.817 88.1576 206.984 88.1576C207.488 87.9897 207.823 87.9897 207.991 88.1576C208.494 88.6612 208.326 89.8363 207.655 90.6757C207.32 91.1793 206.817 91.515 206.314 91.6829C205.81 91.8508 205.475 91.8508 205.307 91.6829C204.804 91.1793 204.972 90.0042 205.643 89.1648C205.978 88.8291 206.313 88.4934 206.649 88.3255Z" fill="#1D1A23"/>
</g>
<mask id="mask3_103_893" style="mask-type:luminance" maskUnits="userSpaceOnUse" x="162" y="86" width="47" height="43">
<path d="M167.063 128.447C167.063 128.447 200.443 102.762 206.481 93.1937C209.501 88.4933 208.159 87.486 208.159 87.486C206.985 86.1431 204.972 86.1431 203.63 87.3182L162.87 124.25L167.063 128.447Z" fill="white"/>
</mask>
<g mask="url(#mask3_103_893)">
<path d="M186.688 106.287C192.895 100.748 198.933 95.2079 201.114 91.6826C204.133 86.9822 202.959 85.8072 202.623 85.6393L202.288 86.1429C202.288 86.1429 203.294 87.1501 200.61 91.3469C198.43 94.7043 192.559 100.244 186.353 105.616C186.185 105.784 186.185 105.952 186.353 106.12C186.353 106.287 186.521 106.287 186.688 106.287Z" fill="#1D1A23"/>
</g>
<path d="M166.56 135.329C166.56 135.329 198.933 111.324 204.469 101.923C207.152 97.2225 205.978 96.3832 205.978 96.3832L169.244 127.272L166.56 135.329Z" fill="#F4BD98"/>
<path d="M192.224 111.492C192.224 111.324 192.224 111.324 192.224 111.492C197.759 106.791 204.469 100.076 206.817 96.2152C206.985 96.0474 206.817 95.8795 206.649 95.7116C206.482 95.5438 206.314 95.7116 206.146 95.8795C204.301 98.7333 198.766 104.777 191.721 110.988C191.553 111.156 191.553 111.324 191.721 111.492C191.889 111.492 192.056 111.492 192.224 111.492Z" fill="#1D1A23"/>
<path d="M257.809 171.59L285.653 216.243L266.699 228.666L236.674 189.72L257.809 171.59Z" fill="white"/>
<path d="M266.699 229.169C266.531 229.169 266.364 229.001 266.196 229.001L236.171 190.223C236.003 189.887 236.003 189.552 236.339 189.384L257.474 171.254C257.641 171.086 257.809 171.086 257.977 171.086C258.145 171.086 258.312 171.254 258.48 171.422L286.492 216.075C286.66 216.411 286.66 216.747 286.324 216.915L267.37 229.169C267.035 229.169 266.867 229.169 266.699 229.169ZM237.513 189.887L266.867 227.826L284.815 216.243L257.641 172.597L237.513 189.887Z" fill="#1D1A23"/>
<path d="M151.464 108.134C151.464 108.134 156.328 101.084 158.341 98.5655C159.683 96.7189 165.721 88.9968 169.076 84.4643C170.418 82.6177 172.766 81.7784 174.108 83.4571C175.45 85.1358 175.618 87.8217 174.612 89.6683L160.354 115.185L153.644 120.053L151.464 108.134Z" fill="#F4BD98"/>
<path d="M131.671 42.6644L117.078 58.2764L103.659 48.5399L120.768 29.5704L131.671 42.6644Z" fill="#F4BD98"/>
<path d="M118.755 178.304L104.162 180.655L118.42 86.1431L128.819 86.6467L126.974 153.124L148.445 105.952L174.444 127.943L132.677 166.889L133.181 175.954L120.768 177.969L118.923 179.647L118.755 178.304Z" fill="#1D1A23"/>
<path d="M123.62 51.2258L120.768 29.7383V29.5704L131.671 42.6644L123.62 51.2258Z" fill="#1D1A23"/>
<path d="M162.746 31.4726C165.41 18.9597 158.316 6.8425 146.9 4.40801C135.484 1.97353 124.07 10.1437 121.406 22.6565C118.742 35.1694 125.836 47.2867 137.252 49.7211C148.668 52.1556 160.082 43.9855 162.746 31.4726Z" fill="#F4BD98"/>
<path d="M92.0847 62.1376C24.8223 172.597 84.2011 233.702 84.2011 233.702L111.207 203.989L120.6 62.3055L129.658 53.0726L105.504 38.6356L100.472 48.8758C100.639 48.7079 94.6008 58.1087 92.0847 62.1376Z" fill="#DCD3F9"/>
<path d="M285.318 189.552L230.3 109.813C222.92 99.0692 207.488 98.062 198.766 107.631L86.5496 231.184C86.5496 231.184 96.7815 252 117.581 252C146.096 252 153.309 235.213 170.921 210.032C182.83 192.909 212.52 154.299 212.52 154.299L250.596 215.236L285.318 189.552Z" fill="#FD521B"/>
<path d="M159.012 111.156L122.948 159.671L131 76.4065C132.006 65.9985 124.793 56.5977 114.394 54.919C102.82 53.0724 92.2526 61.466 91.4139 73.0491L83.5303 185.187C82.8593 195.931 88.7301 205.835 98.2911 210.536C107.684 215.068 119.761 214.061 126.806 206.339C142.07 189.216 177.631 128.95 177.631 128.95L159.012 111.156Z" fill="#DCD3F9"/>
<path d="M155.657 40.9857C155.657 40.9857 159.18 27.7238 149.283 25.7094C149.283 25.5415 142.574 38.6355 155.657 40.9857Z" fill="white"/>
<path d="M155.657 40.9856L160.018 46.8611L151.967 46.3575L155.657 40.9856Z" fill="#F4BD98"/>
<path d="M145.09 0.864531C155.657 2.54324 164.212 14.4621 164.212 21.6806C164.212 24.8701 165.554 27.5561 162.199 24.3665C160.522 22.8557 154.819 18.9946 152.973 20.0019C139.219 27.7239 138.213 14.1264 138.213 14.1264L126.974 22.6878L120.936 20.0019C121.942 4.89344 134.019 -0.982053 145.09 0.864531Z" fill="#4C398D"/>
<mask id="mask4_103_893" style="mask-type:luminance" maskUnits="userSpaceOnUse" x="147" y="25" width="10" height="16">
<path d="M155.657 40.9857C155.657 40.9857 159.18 27.7238 149.283 25.7094C149.283 25.5415 142.574 38.6355 155.657 40.9857Z" fill="white"/>
</mask>
<g mask="url(#mask4_103_893)">
<path d="M153.644 43.5036C157.257 43.5036 160.186 40.5724 160.186 36.9566C160.186 33.3408 157.257 30.4097 153.644 30.4097C150.031 30.4097 147.102 33.3408 147.102 36.9566C147.102 40.5724 150.031 43.5036 153.644 43.5036Z" fill="#1D1A23"/>
</g>
<path d="M203.462 57.2691L223.087 87.1502L233.99 74.2241L215.371 43.3358L203.462 57.2691Z" fill="#FFB6C8"/>
<path d="M160.521 31.417C160.186 31.417 160.018 31.2492 159.851 31.0813C158.341 26.8845 154.315 26.3809 154.315 26.3809C153.98 26.3809 153.644 26.0451 153.812 25.7094C153.812 25.3737 154.147 25.0379 154.483 25.2058C154.651 25.2058 159.18 25.8773 161.025 30.7455C161.192 31.0813 161.025 31.417 160.689 31.5849C160.521 31.417 160.521 31.417 160.521 31.417Z" fill="#1D1A23"/>
<path d="M255.461 250.993L259.319 218.09L266.028 223.798L281.124 217.083C281.124 217.083 279.279 213.557 278.944 209.529C278.776 207.01 280.957 204.828 283.64 205.164L290.685 206.003C291.86 206.171 292.866 207.178 292.866 208.353L292.195 215.236L309.304 223.63L325.239 224.301C332.452 224.637 338.49 230.177 338.994 237.227L340 252L255.461 250.993Z" fill="#FFB6C8"/>
<path d="M256.803 242.599C256.635 242.431 256.467 242.264 256.467 242.096C256.467 241.76 256.635 241.592 256.97 241.592L339.329 243.271C339.665 243.271 339.832 243.439 339.832 243.774C339.832 244.11 339.665 244.278 339.329 244.278L256.97 242.599C256.97 242.767 256.97 242.767 256.803 242.599Z" fill="#1D1A23"/>
<path d="M299.072 230.177C298.737 230.009 298.737 229.673 298.905 229.505C303.266 222.119 309.304 223.126 309.64 223.126C309.975 223.126 310.143 223.462 310.143 223.798C310.143 224.133 309.808 224.301 309.472 224.301C309.304 224.301 303.769 223.462 299.911 230.177C299.743 230.345 299.408 230.345 299.072 230.177Z" fill="#1D1A23"/>
<path d="M289.511 225.476C289.344 225.308 289.176 225.14 289.176 224.805C291.692 217.251 299.072 218.09 299.072 218.09C299.408 218.09 299.575 218.426 299.575 218.594C299.575 218.929 299.24 219.097 299.072 219.097C298.737 219.097 292.363 218.426 290.182 225.14C290.182 225.476 290.014 225.644 289.511 225.476C289.679 225.476 289.679 225.476 289.511 225.476Z" fill="#1D1A23"/>
<path d="M120.768 164.035H120.6C120.265 163.868 120.097 163.7 120.265 163.364L128.651 94.3688C128.651 94.0331 128.987 93.6973 129.322 93.8652C129.658 93.8652 129.993 94.201 129.826 94.5367L121.774 161.182L145.593 128.111C145.761 127.775 146.264 127.775 146.432 127.943C146.767 128.111 146.767 128.615 146.599 128.782L121.439 163.7C121.271 164.035 121.103 164.035 120.768 164.035Z" fill="#1D1A23"/>
<path d="M103.826 213.389H103.659C103.156 213.222 92.9236 209.528 88.8979 203.821L88.5624 203.485C86.5496 200.799 82.5239 195.259 82.8593 185.187C83.5303 165.714 88.3946 107.127 88.3946 106.455C88.3946 106.12 88.7301 105.784 89.0656 105.952C89.4011 105.952 89.7365 106.288 89.5688 106.623C89.5688 107.295 84.7045 165.714 84.0335 185.187C83.698 194.756 87.556 200.128 89.4011 202.646L89.7366 202.981C93.5946 208.185 103.826 212.047 103.826 212.047C104.162 212.214 104.33 212.55 104.162 212.886C104.33 213.222 104.162 213.389 103.826 213.389Z" fill="#1D1A23"/>
<path d="M104.665 170.415C104.497 170.415 104.162 170.247 104.162 170.079C103.994 169.743 104.162 169.407 104.497 169.239L114.897 164.875C115.233 164.707 115.568 164.875 115.736 165.211C115.904 165.546 115.736 165.882 115.4 166.05L105.001 170.415C104.833 170.415 104.833 170.415 104.665 170.415Z" fill="#1D1A23"/>
<path d="M111.375 176.962C111.207 176.962 111.039 176.962 111.039 176.794C110.704 176.626 110.704 176.122 110.872 175.954L120.433 163.196C120.6 162.86 121.104 162.86 121.271 163.028C121.607 163.196 121.607 163.7 121.439 163.868L111.878 176.626C111.71 176.794 111.543 176.962 111.375 176.962Z" fill="#1D1A23"/>
<path d="M146.096 47.3649C145.928 47.3649 145.928 47.3649 145.76 47.197C145.593 47.0292 142.909 44.5111 141.735 40.9858C141.735 40.8179 141.735 40.4822 142.07 40.4822C142.238 40.4822 142.574 40.4822 142.574 40.8179C143.58 44.1753 146.264 46.6934 146.264 46.6934C146.431 46.8613 146.431 47.197 146.264 47.3649C146.431 47.3649 146.264 47.3649 146.096 47.3649Z" fill="#1D1A23"/>
<path d="M122.781 11.944C122.781 11.944 120.097 20.1697 117.581 23.0235C115.065 25.7095 101.646 23.8629 97.117 34.103C92.5881 44.3432 97.117 51.8974 93.7623 58.4444C89.7366 65.9986 83.0271 70.3632 76.1499 68.3488C76.1499 68.3488 89.9043 86.311 105.001 81.7785C118.587 77.7496 122.613 65.3271 120.936 61.1303C119.258 56.9335 116.407 47.0291 122.781 45.3504C135.361 41.993 132.342 27.8918 129.826 18.1553C127.31 8.083 122.781 11.944 122.781 11.944Z" fill="#4C398D"/>
<path d="M128.652 14.1263C130.832 11.2725 134.69 10.7689 137.206 13.1191C139.722 15.4693 139.89 19.4982 137.542 22.352C135.361 25.2058 131.503 25.7094 128.987 23.3592C126.639 21.009 126.471 16.8122 128.652 14.1263Z" fill="#F4BD98"/>
<path d="M133.684 22.1841C133.348 22.1841 133.181 21.8483 133.348 21.6805L134.858 14.2941C134.858 14.1262 135.193 13.9584 135.361 13.9584C135.529 13.9584 135.697 14.2941 135.697 14.462L134.187 21.8483C134.019 22.0162 133.851 22.1841 133.684 22.1841Z" fill="#1D1A23"/>
<path d="M134.019 20.0017L130.161 18.9945C129.993 18.9945 129.826 18.6588 129.826 18.4909C129.826 18.323 130.161 18.1552 130.329 18.1552L134.187 19.1624C134.355 19.1624 134.522 19.4981 134.522 19.666C134.355 20.0017 134.187 20.0017 134.019 20.0017Z" fill="#1D1A23"/>
<path d="M211.849 148.759C211.513 148.759 211.346 148.591 211.178 148.423L206.985 136.84C206.817 136.504 206.985 136.169 207.32 136.001C207.655 135.833 207.991 136.001 208.159 136.337L212.352 147.92C212.52 148.255 212.352 148.591 212.017 148.759H211.849Z" fill="#1D1A23"/>
<path d="M214.197 150.438C213.694 150.438 213.526 150.102 213.526 149.766L217.384 128.447C217.384 128.111 217.72 127.943 218.055 127.943C218.391 127.943 218.558 128.279 218.558 128.614L214.701 149.934C214.701 150.27 214.533 150.438 214.197 150.438Z" fill="#1D1A23"/>
<path d="M399.034 252H0.965717C0.386287 252 0 251.6 0 251C0 250.4 0.386287 250 0.965717 250H399.034C399.614 250 400 250.4 400 251C400 251.6 399.614 252 399.034 252Z" fill="#1D1A23"/>
</svg>
