<svg width="588" height="366" viewBox="0 0 588 366" fill="none" xmlns="http://www.w3.org/2000/svg">
<path d="M209.208 271.51L246.478 274.91C247.885 275.027 248.939 276.083 249.057 277.489C249.174 279.131 247.885 280.655 246.244 280.655H209.677C209.56 280.537 206.63 271.276 209.208 271.51Z" fill="#F4BD98"/>
<path d="M67.396 154.864L46.4171 162.485C45.9483 162.602 45.4795 162.25 45.4795 161.781V124.032C45.4795 123.681 45.7139 123.446 45.9483 123.329L66.9271 115.709C67.3959 115.592 67.8647 115.943 67.8647 116.412V154.161C67.8647 154.513 67.6304 154.747 67.396 154.864Z" fill="#FD521B"/>
<path d="M66.4584 156.154L46.4171 161.781C45.9483 161.898 45.4795 161.546 45.4795 161.077V124.853C45.4795 124.501 45.7139 124.266 45.9483 124.149L65.9895 117.115C66.4584 116.998 66.9271 117.35 66.9271 117.819V155.568C66.9271 155.802 66.6928 156.036 66.4584 156.154Z" fill="#DCD3F9"/>
<path d="M70.4432 161.312L46.0655 162.485C45.5967 162.485 45.2451 162.133 45.2451 161.781V124.853C45.2451 124.501 45.4796 124.149 45.9484 124.149L70.326 122.039C70.7948 122.039 71.1464 122.391 71.1464 122.743V160.492C71.1464 160.961 70.912 161.312 70.4432 161.312Z" fill="#DCD3F9"/>
<path d="M70.4432 161.312L46.0655 162.485C45.5967 162.485 45.2451 162.133 45.2451 161.781V124.853C45.2451 124.501 45.4796 124.149 45.9484 124.149L70.326 122.039C70.7948 122.039 71.1464 122.391 71.1464 122.743V160.492C71.1464 160.961 70.912 161.312 70.4432 161.312Z" fill="#DCD3F9"/>
<path d="M71.9672 168.229L45.9488 162.836C45.5972 162.719 45.3628 162.484 45.3628 162.133V124.384C45.3628 123.915 45.8316 123.563 46.3004 123.68L72.3189 129.073C72.6705 129.19 72.9049 129.425 72.9049 129.777V167.525C72.9049 167.994 72.436 168.346 71.9672 168.229Z" fill="#FD521B"/>
<path d="M71.9672 168.229L45.9488 162.836C45.5972 162.719 45.3628 162.484 45.3628 162.133V124.384C45.3628 123.915 45.8316 123.563 46.3004 123.68L72.3189 129.073C72.6705 129.19 72.9049 129.425 72.9049 129.777V167.525C72.9049 167.994 72.436 168.346 71.9672 168.229Z" fill="#FD521B"/>
<path d="M42.5499 173.856C41.2607 167.525 40.0887 163.774 43.0187 158.029C46.8863 150.292 50.8711 141.734 51.9259 136.693C52.1603 135.521 53.3324 134.817 54.5044 134.935C55.6764 135.169 56.4967 136.107 56.3795 137.279C56.0279 141.148 54.856 149.471 51.2228 154.63C46.3003 161.429 48.9959 171.98 48.9959 171.98C48.9959 171.98 42.9015 175.497 42.5499 173.856Z" fill="#F4BD98"/>
<path d="M45.9484 173.035C45.9484 173.035 41.2604 166.001 46.4172 157.209C50.7536 149.706 54.2696 140.913 55.3244 135.872C55.5588 134.7 56.7308 133.997 57.9028 134.114C59.0748 134.348 59.8952 135.286 59.778 136.459C59.4264 140.327 58.2544 148.651 54.6212 153.809C49.6988 160.609 52.3944 171.159 52.3944 171.159L45.9484 173.035Z" fill="#F4BD98"/>
<path d="M49.2301 174.442C49.2301 174.442 45.1281 168.229 49.5817 160.374C53.4493 153.692 56.4965 145.837 57.4341 141.5C57.6685 140.445 58.7233 139.741 59.7781 139.976C60.8329 140.093 61.5361 141.031 61.4189 142.086C61.0673 145.486 59.4265 152.637 56.1449 157.209C51.8084 163.305 54.8557 172.918 54.8557 172.918L49.2301 174.442Z" fill="#F4BD98"/>
<path d="M46.0655 177.959C46.0655 177.959 43.1355 171.042 48.9955 164.243C54.0351 158.381 58.4887 151.23 60.2467 147.127C60.5983 146.189 61.7703 145.72 62.8251 146.072C63.7627 146.424 64.3488 147.479 64.1144 148.416C63.1768 151.699 61.3016 156.037 56.6135 160.843C56.1447 161.312 54.0351 171.394 54.0351 171.394L46.0655 177.959Z" fill="#F4BD98"/>
<path d="M190.808 266.469L193.855 280.537H221.632C223.507 280.537 224.913 278.779 224.445 276.903C224.21 275.613 223.038 274.793 221.866 274.676L207.451 273.503L197.606 262.952L190.808 266.469Z" fill="#F4BD98"/>
<path d="M41.8467 170.456L42.7843 175.028L54.0355 171.394L54.9731 166.822L41.8467 170.456Z" fill="#1D1A23"/>
<path d="M202.997 263.421L205.693 268.345C206.865 270.573 209.209 272.097 211.67 272.331L239.446 275.027C240.853 275.145 241.908 276.2 242.025 277.607C242.142 279.248 240.853 280.772 239.212 280.772H202.645L194.676 262.601L202.997 263.421Z" fill="#F4BD98"/>
<path d="M138.419 138.686L147.327 148.886L139.357 156.271L129.747 144.313L138.419 138.686Z" fill="#F4BD98"/>
<path d="M129.747 144.313L134.435 150.057L139.005 139.506L137.716 139.155L129.747 144.313Z" fill="#1D1A23"/>
<path d="M205.224 267.407L191.863 271.51L190.808 266.469L202.645 262.601L205.224 267.407Z" fill="#1D1A23"/>
<path d="M164.907 263.304C164.907 263.304 163.852 283.468 118.73 280.186C73.6078 277.021 60.9502 251.347 60.9502 251.347L96.6963 217.935L154.476 234.348L164.907 263.304Z" fill="#7B5DDF"/>
<path d="M144.866 147.478L159.399 137.045C168.775 130.362 181.784 135.521 184.128 146.658L208.271 262.601L187.527 268.814L175.338 218.404C175.338 218.404 173.931 247.009 164.79 265.883L141.936 243.726L90.1332 238.099L72.9048 241.616C64.818 243.257 56.8483 238.568 54.3871 230.713L36.9243 175.262L56.8484 168.58L72.6704 210.432L97.2825 167.291C99.2749 163.656 102.674 160.96 106.776 159.905L138.185 151.581L144.866 147.478Z" fill="#FEA419"/>
<path d="M112.987 136.81L108.534 133.176L113.691 133.645L112.987 136.81Z" fill="#F4BD98"/>
<path d="M113.925 126.728C117.792 118.991 126.582 115.357 133.615 118.757C140.647 122.156 143.342 131.066 139.475 138.803C135.607 146.541 126.817 150.175 119.785 146.775C112.753 143.493 110.057 134.583 113.925 126.728Z" fill="#F4BD98"/>
<path d="M148.03 145.134L144.866 147.361L138.302 151.464L128.692 154.043C129.747 157.678 132.911 163.891 142.873 158.616C148.733 155.333 148.382 148.065 148.03 145.134Z" fill="#F4BD98"/>
<path d="M175.455 219.811C175.221 219.811 175.103 219.694 174.986 219.459L166.431 177.373C166.431 177.139 166.548 176.904 166.782 176.904C167.017 176.904 167.251 177.021 167.251 177.256L175.807 219.342C175.924 219.459 175.807 219.694 175.455 219.811C175.572 219.811 175.572 219.811 175.455 219.811Z" fill="#1D1A23"/>
<path d="M95.407 236.81L15.3592 246.071C6.45197 247.126 -0.228418 254.746 0.00598239 263.773C0.240383 273.152 7.85838 280.655 17.2344 280.655L102.791 280.538L95.407 236.81Z" fill="#7B5DDF"/>
<path d="M115.214 261.897C115.214 261.897 136.545 263.304 138.185 274.676C139.24 281.593 131.388 280.655 117.91 279.6C104.432 278.544 115.214 261.897 115.214 261.897Z" fill="white"/>
<path d="M129.981 280.772C127.168 280.772 123.887 280.538 119.902 280.186L117.909 280.069C114.628 279.834 112.401 278.662 111.346 276.552C108.768 271.276 114.511 262.132 114.862 261.78C114.979 261.663 115.097 261.546 115.214 261.546C116.151 261.663 136.896 263.187 138.654 274.676C138.888 276.552 138.654 277.958 137.716 278.896C136.31 280.303 133.731 280.772 129.981 280.772ZM115.448 262.367C114.628 263.773 109.94 271.628 112.167 276.083C113.104 277.841 114.979 278.896 118.027 279.131L120.019 279.248C128.692 279.951 135.021 280.42 137.013 278.193C137.716 277.372 137.951 276.317 137.716 274.676C136.193 264.594 117.792 262.601 115.448 262.367Z" fill="#1D1A23"/>
<path d="M164.555 161.898C164.204 161.781 164.086 161.547 164.086 161.312L170.298 137.866C170.415 137.631 170.65 137.514 170.884 137.514C171.118 137.631 171.236 137.866 171.236 138.1L165.024 161.547C164.907 161.781 164.79 161.898 164.555 161.898Z" fill="#1D1A23"/>
<path d="M115.8 249.705L120.839 275.027C121.425 277.841 119.199 280.537 116.269 280.537H64.3487C62.3563 280.537 60.7156 279.013 60.5984 277.02C60.4812 275.379 61.6532 273.855 63.4112 273.621C70.5604 272.8 88.1405 270.221 92.0081 266C96.9305 260.608 93.8832 251.112 93.8832 251.112L115.8 249.705Z" fill="white"/>
<path d="M116.269 281.006H64.3491C62.1222 281.006 60.3643 279.248 60.1299 277.138C60.0127 275.262 61.4191 273.503 63.2943 273.269C68.9199 272.566 87.7892 270.104 91.6568 265.766C96.3448 260.608 93.532 251.464 93.4148 251.346C93.4148 251.229 93.4148 251.112 93.4148 250.995C93.532 250.878 93.6492 250.76 93.7664 250.76L115.683 249.354C115.917 249.354 116.152 249.471 116.152 249.705L121.191 275.027C121.543 276.551 121.074 278.075 120.136 279.248C119.199 280.303 117.792 281.006 116.269 281.006ZM94.4696 251.581C95.0556 253.691 96.6964 261.428 92.36 266.352C88.3751 270.807 70.7951 273.269 63.5287 274.207C62.1223 274.324 61.0675 275.614 61.1847 277.138C61.3019 278.896 62.7083 280.186 64.4663 280.186H116.386C117.675 280.186 118.847 279.6 119.668 278.662C120.488 277.724 120.84 276.434 120.488 275.145L115.448 250.291L94.4696 251.581Z" fill="#1D1A23"/>
<path d="M145.334 249.588L113.456 163.774C110.526 155.802 101.97 151.464 93.8832 153.692C86.0308 155.802 80.874 163.305 81.5772 171.394L88.9608 255.45L121.543 254.043L145.334 249.588Z" fill="#7B5DDF"/>
<path d="M88.844 255.919C88.6096 255.919 88.3752 255.801 88.3752 255.567L86.8516 237.865C86.8516 237.63 86.9687 237.396 87.2031 237.396C87.4375 237.396 87.672 237.513 87.672 237.747L89.1956 255.098L120.84 253.691L104.783 174.207C104.783 173.973 104.9 173.739 105.135 173.739C105.369 173.739 105.604 173.856 105.604 174.09L121.777 254.043C121.777 254.16 121.777 254.277 121.66 254.395C121.543 254.512 121.426 254.512 121.308 254.512L88.844 255.919Z" fill="#1D1A23"/>
<path d="M77.2408 224.5C77.0064 224.5 76.8893 224.383 76.7721 224.149L72.2012 210.55C72.084 210.315 72.2013 210.081 72.4357 209.963C72.6701 209.846 72.9045 209.963 73.0217 210.198L77.5925 223.797C77.7097 224.031 77.5925 224.266 77.3581 224.383C77.3581 224.5 77.2408 224.5 77.2408 224.5Z" fill="#1D1A23"/>
<path d="M22.0396 254.629C21.8052 254.629 21.5708 254.512 21.5708 254.277C21.5708 254.043 21.6881 253.808 21.9225 253.808L88.1406 248.416C88.375 248.416 88.6094 248.533 88.6094 248.767C88.6094 249.002 88.4922 249.236 88.2578 249.236L22.0396 254.629Z" fill="#1D1A23"/>
<path d="M35.0487 253.574C34.9315 253.574 34.8144 253.574 34.6972 253.457L31.064 249.119C30.9468 248.885 30.9468 248.65 31.064 248.533C31.2984 248.416 31.5328 248.416 31.65 248.533L35.2832 252.871C35.4004 253.105 35.4004 253.34 35.2832 253.457C35.166 253.574 35.1659 253.574 35.0487 253.574Z" fill="#1D1A23"/>
<path d="M115.565 133.997C115.565 133.997 117.909 125.087 125.645 130.832C125.645 130.832 121.543 139.507 115.565 133.997Z" fill="white"/>
<path d="M123.066 126.377C122.949 126.377 122.949 126.377 122.832 126.377C122.832 126.377 120.605 125.204 116.972 126.377C116.737 126.494 116.503 126.377 116.386 126.142C116.269 125.908 116.386 125.673 116.62 125.556C120.722 124.266 123.066 125.556 123.183 125.673C123.418 125.79 123.418 126.025 123.301 126.259C123.301 126.259 123.183 126.377 123.066 126.377Z" fill="#1D1A23"/>
<path d="M117.323 143.141C117.089 143.141 116.972 143.024 116.855 142.789C116.737 142.555 116.855 142.32 117.089 142.203C118.495 141.734 118.964 140.679 118.964 140.679C119.081 140.444 119.316 140.327 119.55 140.444C119.785 140.562 119.902 140.796 119.785 141.031C119.785 141.148 119.199 142.555 117.441 143.141C117.323 143.141 117.323 143.141 117.323 143.141Z" fill="#1D1A23"/>
<path d="M133.614 118.874C127.754 116.06 120.722 118.053 116.269 123.211L116.386 123.329C118.847 125.087 124.121 120.867 126.348 121.453C128.457 122.039 126.348 122.391 128.575 127.901C130.684 133.176 140.295 132.824 141.232 132.707C141.584 126.846 138.888 121.336 133.614 118.874Z" fill="#1D1A23"/>
<path d="M142.404 134.817C142.99 132.238 141.584 129.894 139.24 129.425C136.896 128.956 134.435 130.714 133.731 133.176C133.145 135.755 134.552 138.1 136.896 138.569C139.24 139.038 141.701 137.397 142.404 134.817Z" fill="#F4BD98"/>
<path d="M135.724 135.99C135.607 135.99 135.49 135.99 135.373 135.873C135.138 135.638 135.138 135.286 135.373 135.052L138.889 130.949C139.123 130.714 139.475 130.714 139.709 130.949C139.943 131.183 139.943 131.535 139.709 131.769L136.193 135.873C136.076 135.873 135.841 135.99 135.724 135.99Z" fill="#1D1A23"/>
<path d="M139.123 136.576C139.006 136.576 138.888 136.576 138.771 136.459L136.544 134.7C136.31 134.466 136.193 134.114 136.427 133.88C136.661 133.645 137.013 133.528 137.247 133.762L139.474 135.521C139.709 135.755 139.826 136.107 139.591 136.341C139.474 136.459 139.357 136.576 139.123 136.576Z" fill="#1D1A23"/>
<mask id="mask0_147_1032" style="mask-type:luminance" maskUnits="userSpaceOnUse" x="115" y="128" width="11" height="8">
<path d="M115.565 133.997C115.565 133.997 117.909 125.087 125.645 130.832C125.645 130.832 121.543 139.507 115.565 133.997Z" fill="white"/>
</mask>
<g mask="url(#mask0_147_1032)">
<path d="M118.847 136.81C121.048 136.81 122.832 135.026 122.832 132.825C122.832 130.623 121.048 128.839 118.847 128.839C116.646 128.839 114.862 130.623 114.862 132.825C114.862 135.026 116.646 136.81 118.847 136.81Z" fill="#1D1A23"/>
</g>
<path d="M145.92 252.05C145.686 252.05 145.569 251.933 145.451 251.699L143.576 246.071C143.459 245.837 143.576 245.602 143.811 245.485C144.045 245.368 144.279 245.485 144.397 245.72L146.272 251.347C146.389 251.581 146.272 251.816 146.037 251.933C145.92 252.05 145.92 252.05 145.92 252.05Z" fill="#1D1A23"/>
<path d="M185.769 261.663C185.534 261.663 185.417 261.546 185.3 261.311C185.183 261.077 185.417 260.842 185.651 260.725L206.513 254.629C206.747 254.512 206.982 254.746 207.099 254.981C207.216 255.215 206.982 255.449 206.747 255.567L185.886 261.663C185.769 261.663 185.769 261.663 185.769 261.663Z" fill="#1D1A23"/>
<path d="M39.3855 183.351C39.1511 183.351 39.0339 183.234 38.9167 183C38.7995 182.765 39.0339 182.531 39.1511 182.413L59.5439 176.2C59.7783 176.083 60.0127 176.317 60.1299 176.435C60.2471 176.669 60.0127 176.904 59.8955 177.021L39.5027 183.234C39.5027 183.351 39.3855 183.351 39.3855 183.351Z" fill="#1D1A23"/>
<path d="M221.632 280.889H193.855C193.738 280.889 193.504 280.772 193.504 280.537C193.504 280.42 193.621 280.186 193.855 280.186H221.632C222.452 280.186 223.156 279.834 223.742 279.131C224.21 278.544 224.445 277.724 224.21 276.903C223.976 275.731 223.038 274.91 221.866 274.91L207.451 273.738C207.334 273.738 207.216 273.621 207.216 273.386C207.216 273.269 207.334 273.035 207.568 273.152L221.984 274.324C223.39 274.441 224.562 275.379 224.914 276.786C225.148 277.724 224.914 278.779 224.328 279.482C223.507 280.42 222.57 280.889 221.632 280.889Z" fill="#1D1A23"/>
<path d="M239.212 280.889H202.646C202.528 280.889 202.294 280.772 202.294 280.538C202.294 280.42 202.411 280.186 202.646 280.186H239.212C239.915 280.186 240.618 279.834 241.087 279.365C241.556 278.779 241.79 278.076 241.79 277.372C241.673 276.2 240.736 275.145 239.446 275.028L211.67 272.331C211.553 272.331 211.436 272.214 211.436 271.98C211.436 271.862 211.553 271.745 211.787 271.745L239.564 274.441C241.087 274.559 242.259 275.731 242.376 277.255C242.494 278.193 242.142 279.014 241.556 279.717C240.97 280.538 240.15 280.889 239.212 280.889Z" fill="#1D1A23"/>
<path d="M54.5039 157.56C54.3867 157.56 54.3867 157.56 54.3867 157.56C54.2695 157.443 54.2695 157.326 54.2695 157.209C57.4339 152.871 59.1919 149.237 60.4811 145.954C60.5983 145.837 60.7155 145.72 60.8327 145.837C60.9499 145.954 61.0672 146.072 60.95 146.189C59.6608 149.354 57.9027 153.106 54.6211 157.56C54.7383 157.443 54.6211 157.56 54.5039 157.56Z" fill="#1D1A23"/>
<path d="M51.9255 155.45H51.8084C51.6912 155.333 51.5739 155.216 51.6911 155.098C54.2695 150.057 56.6136 144.43 57.434 141.382C57.6684 140.21 58.9575 139.507 60.1296 139.741C60.2468 139.741 60.364 139.975 60.364 140.093C60.364 140.21 60.1296 140.327 60.0124 140.327C59.0748 140.21 58.2544 140.679 58.02 141.617C57.1996 144.782 54.8555 150.409 52.2771 155.45C52.1599 155.333 52.0427 155.45 51.9255 155.45Z" fill="#1D1A23"/>
<path d="M48.7615 153.106H48.6443C48.5271 152.988 48.4099 152.871 48.5271 152.754C48.5271 152.754 50.0507 149.823 51.5743 146.423C53.0979 143.024 55.0903 135.521 55.0903 135.521C55.0903 135.404 55.3247 135.286 55.4419 135.286C55.5591 135.286 55.6763 135.521 55.6763 135.638C55.6763 135.755 53.6839 143.258 52.1603 146.658C50.6367 150.058 49.1131 152.988 48.9959 152.988C48.9959 153.106 48.8787 153.106 48.7615 153.106Z" fill="#1D1A23"/>
<path d="M352.076 23.798H305.43C304.961 23.798 304.492 23.3291 304.61 22.8601L309.415 1.1721C309.532 0.820403 309.884 0.585938 310.235 0.585938H355.592C356.06 0.585938 356.529 1.05487 356.412 1.5238L352.896 23.2118C352.779 23.4463 352.427 23.798 352.076 23.798Z" fill="#FFB6C8"/>
<path d="M293.71 141.617L322.893 148.885L313.751 157.092L293.71 155.568V141.617Z" fill="#FEA419"/>
<path d="M316.915 29.8945C316.915 29.8945 310.352 25.9086 310.821 18.6402C311.055 13.7164 315.274 11.7235 315.86 16.8817C316.446 22.0399 319.142 19.6953 320.666 24.1501C322.189 28.7222 320.9 31.653 320.9 31.653L316.915 29.8945Z" fill="#E8926D"/>
<path d="M355.709 25.3221H308.946C308.477 25.3221 308.125 24.9703 308.125 24.5014L309.415 1.28938C309.415 0.820453 309.766 0.46875 310.235 0.46875H355.709C356.178 0.46875 356.529 0.820453 356.529 1.28938V24.5014C356.529 24.9703 356.178 25.3221 355.709 25.3221Z" fill="#DCD3F9"/>
<path d="M319.728 18.8743C319.728 18.8743 319.376 27.5495 322.541 31.0664C325.705 34.5834 325.354 19.8121 325.354 19.8121L319.728 18.8743Z" fill="#E8926D"/>
<path d="M360.983 20.0466H314.337C313.985 20.0466 313.634 19.8122 313.516 19.3432L310 1.28943C309.883 0.820496 310.235 0.351562 310.821 0.351562H356.177C356.529 0.351562 356.881 0.586028 356.998 0.937725L361.803 18.9915C361.92 19.5777 361.569 20.0466 360.983 20.0466Z" fill="#FFB6C8"/>
<path d="M328.284 29.6596L329.808 112.777L310.821 112.191L316.447 27.1978L328.284 29.6596Z" fill="#E8926D"/>
<path d="M353.365 20.5157H313.751C313.517 20.5157 313.399 20.3985 313.282 20.164L309.415 0.468932C309.415 0.234467 309.532 0 309.766 0C310.001 0 310.235 0.117236 310.235 0.351701L314.103 19.6951H353.365C353.599 19.6951 353.833 19.9295 353.833 20.164C353.833 20.3985 353.599 20.5157 353.365 20.5157Z" fill="#1D1A23"/>
<path d="M311.759 97.7717H318.556L318.088 102.578H311.407L311.759 97.7717Z" fill="#1D1A23"/>
<path d="M325.119 101.406H308.125L304.375 141.148L320.197 144.313L325.119 101.406Z" fill="#7B5DDF"/>
<path d="M315.04 136.576L300.742 136.107L298.164 149.237L314.572 148.768L315.04 136.576Z" fill="#E8926D"/>
<path d="M300.742 136.107L299.101 144.313H300.507C299.804 144.782 306.485 143.493 307.891 136.341L300.742 136.107Z" fill="#1D1A23"/>
<path d="M538.658 154.981L565.849 154.864C569.013 154.864 571.474 152.051 571.24 148.885C570.537 140.796 568.779 126.728 566.083 120.515C562.098 111.723 555.066 107.385 551.902 106.33C550.847 105.978 549.675 106.33 548.972 107.151C548.269 108.088 548.151 109.378 548.855 110.316C550.847 113.247 554.949 119.577 555.652 124.735C556.238 128.839 556.004 134.114 555.769 137.631C555.652 139.858 553.894 141.5 551.667 141.617L540.065 142.086L538.658 154.981Z" fill="#FD521B"/>
<path d="M389.228 129.894L429.779 76.0838C435.171 68.9327 445.836 69.1671 450.993 76.4355L490.489 132.707L461.658 133.762L441.382 102.813L421.341 132.004L389.228 129.894Z" fill="white"/>
<path d="M461.541 134.114C461.423 134.114 461.306 133.997 461.189 133.88L441.265 103.517L421.575 132.121C421.458 132.239 421.341 132.356 421.224 132.356L389.228 130.363C389.111 130.363 388.876 130.246 388.876 130.128C388.759 130.011 388.876 129.777 388.876 129.659L429.428 75.8497C432.123 72.3327 436.108 70.457 440.444 70.457C444.781 70.5743 448.766 72.6844 451.344 76.2014L490.841 132.473C490.958 132.59 490.958 132.825 490.841 132.942C490.723 133.059 490.606 133.176 490.489 133.176L461.541 134.114ZM441.265 102.344C441.382 102.344 441.499 102.462 441.616 102.579L461.775 133.294L489.551 132.356L450.524 76.7876C448.18 73.3878 444.429 71.5121 440.327 71.3949C436.225 71.2777 432.475 73.1534 430.014 76.4359L389.931 129.542L420.872 131.535L440.796 102.579C441.03 102.344 441.148 102.344 441.265 102.344Z" fill="#1D1A23"/>
<path d="M542.526 133.645L541.237 154.981L387.588 156.271L386.533 126.963L542.526 133.645Z" fill="white"/>
<path d="M387.587 156.623C387.353 156.623 387.118 156.388 387.118 156.154L386.181 126.963C386.181 126.846 386.181 126.728 386.298 126.611C386.415 126.494 386.532 126.494 386.649 126.494L542.643 133.176C542.76 133.176 542.877 133.176 542.995 133.293C543.112 133.411 543.112 133.528 543.112 133.645L541.706 154.981C541.706 155.216 541.471 155.333 541.237 155.45L387.587 156.623ZM387.001 127.432L387.939 155.802L540.768 154.512L542.057 134.114L387.001 127.432Z" fill="#1D1A23"/>
<path d="M337.191 122.391L392.158 123.446L384.54 150.292L330.979 145.954L337.191 122.391Z" fill="#7B5DDF"/>
<path d="M335.081 29.6599L336.605 112.778L317.619 112.192L323.127 29.8944L335.081 29.6599Z" fill="#E8926D"/>
<path d="M440.913 103.517C440.796 103.517 440.679 103.517 440.679 103.399C440.445 103.282 440.445 102.931 440.562 102.813L447.828 93.4347C447.945 93.2002 448.297 93.2003 448.414 93.3175C448.649 93.4347 448.649 93.7864 448.532 93.9036L441.265 103.282C441.148 103.517 441.031 103.517 440.913 103.517Z" fill="#1D1A23"/>
<path d="M293.401 150.946C301.523 147.549 305.475 138.5 302.229 130.734C298.982 122.969 289.767 119.428 281.645 122.825C273.523 126.222 269.571 135.271 272.818 143.036C276.064 150.802 285.279 154.343 293.401 150.946Z" fill="#E8926D"/>
<path d="M285.623 116.881V122.625L290.311 122.742L285.623 116.881Z" fill="#E8926D"/>
<path d="M293.241 128.956C293.124 128.956 293.006 128.956 292.889 128.838C292.772 128.721 292.772 128.369 292.889 128.252C294.53 126.611 293.241 124.032 293.241 124.032C293.124 123.797 293.241 123.563 293.475 123.446C293.71 123.328 293.944 123.446 294.061 123.68C294.178 123.797 295.585 126.845 293.592 128.838C293.475 128.956 293.358 128.956 293.241 128.956Z" fill="#1D1A23"/>
<path d="M283.865 124.266C283.865 124.266 276.13 127.666 281.404 134.348C281.404 134.348 288.787 131.418 283.865 124.266Z" fill="white"/>
<path d="M276.716 133.411C276.599 133.411 276.364 133.294 276.364 133.176C275.075 129.777 276.481 127.549 276.599 127.549C276.716 127.315 277.067 127.315 277.185 127.432C277.419 127.549 277.419 127.901 277.302 128.018C277.302 128.135 276.013 129.894 277.185 132.825C277.302 133.059 277.185 133.294 276.95 133.411C276.833 133.411 276.833 133.411 276.716 133.411Z" fill="#1D1A23"/>
<path d="M328.401 16.1779H317.267C316.681 16.1779 316.212 15.8262 316.095 15.24L313.282 3.39951C313.165 3.04781 313.282 2.69611 313.517 2.34441C313.751 1.99271 314.103 1.87549 314.454 1.87549H325.588C326.174 1.87549 326.643 2.22718 326.76 2.81334L329.573 14.6538C329.69 15.0055 329.573 15.3572 329.339 15.7089C329.104 16.0606 328.753 16.1779 328.401 16.1779ZM314.454 2.81334C314.337 2.81334 314.22 2.93057 314.22 2.93057C314.103 3.04781 314.103 3.16504 314.103 3.28228L316.915 15.1228C316.915 15.24 317.15 15.3572 317.267 15.3572H328.401C328.518 15.3572 328.636 15.3572 328.636 15.24C328.636 15.24 328.753 15.1228 328.753 14.8883L325.94 3.04781C325.94 2.93058 325.706 2.81334 325.588 2.81334H314.454Z" fill="white"/>
<path d="M290.194 145.017C290.194 145.017 295.233 139.741 304.492 146.541C311.524 151.699 317.97 155.45 321.603 155.333C329.573 155.216 332.034 156.975 332.034 156.975C332.034 156.975 308.125 157.209 302.265 157.209C296.405 157.209 269.801 156.975 269.801 156.975C270.387 152.285 275.309 151.934 273.082 148.182C270.387 143.376 271.91 135.052 271.91 135.052L290.194 145.017Z" fill="#FEA419"/>
<path d="M334.144 15.4749C333.909 15.4749 333.792 15.3576 333.675 15.1232L330.862 3.2827C330.862 3.04823 330.979 2.81377 331.214 2.69653C331.448 2.69653 331.683 2.81377 331.8 3.04823L334.613 14.8887C334.613 15.1232 334.496 15.3576 334.144 15.4749Z" fill="white"/>
<path d="M337.543 15.4749C337.308 15.4749 337.191 15.3576 337.074 15.1232L334.261 3.2827C334.261 3.04823 334.378 2.81377 334.613 2.69653C334.847 2.69653 335.082 2.81377 335.199 3.04823L338.012 14.8887C338.012 15.1232 337.777 15.3576 337.543 15.4749Z" fill="white"/>
<path d="M334.964 30.8318C334.964 30.8318 337.074 21.8049 337.191 18.8741C337.308 15.9432 334.73 10.0816 330.511 9.61269L322.541 9.26099C321.369 9.26099 320.549 10.1989 320.666 11.3712C321.018 13.1297 322.307 17.819 322.424 20.3981C322.776 24.8529 323.01 31.7696 323.01 31.7696L334.964 30.8318Z" fill="#E8926D"/>
<path d="M336.371 101.992V109.612L318.087 107.854V102.578L336.371 101.992Z" fill="#1D1A23"/>
<path d="M326.761 17.8193C326.526 17.8193 326.292 17.7021 326.292 17.4676C325.706 11.7232 322.893 9.96472 322.893 9.96472C322.659 9.84749 322.658 9.61303 322.776 9.37856C322.893 9.1441 323.127 9.1441 323.362 9.26133C323.479 9.37856 326.643 11.1371 327.229 17.4676C327.229 17.5848 327.112 17.8193 326.761 17.8193Z" fill="#1D1A23"/>
<path d="M333.441 17.8193C333.206 17.8193 332.972 17.7021 332.972 17.4676C332.386 11.7232 329.573 9.96472 329.573 9.96472C329.339 9.84749 329.339 9.61303 329.456 9.37856C329.573 9.1441 329.807 9.1441 330.042 9.26133C330.159 9.37856 333.323 11.1371 333.909 17.4676C333.909 17.5848 333.792 17.8193 333.441 17.8193C333.558 17.8193 333.558 17.8193 333.441 17.8193Z" fill="#1D1A23"/>
<path d="M330.393 17.8193C330.159 17.8193 329.925 17.7021 329.925 17.4676C329.339 11.7232 326.526 9.96472 326.526 9.96472C326.291 9.84749 326.291 9.61303 326.409 9.37856C326.526 9.1441 326.76 9.1441 326.995 9.26133C327.112 9.37856 330.276 11.1371 330.862 17.4676C330.862 17.5848 330.745 17.8193 330.393 17.8193Z" fill="#1D1A23"/>
<path d="M287.264 145.016C287.264 145.016 287.029 141.851 282.341 141.851C282.341 141.851 279.646 130.245 273.903 131.183C273.903 131.183 273.668 130.831 273.434 130.362C272.731 131.769 272.145 133.293 271.91 134.934C271.442 137.631 271.676 140.327 272.848 143.023C276.13 150.761 285.271 154.278 293.358 150.878C295.585 149.94 297.577 148.533 299.101 146.892L287.264 145.016Z" fill="#FEA419"/>
<path d="M339.418 136.811L342.348 106.565L315.392 105.041L311.759 144.313C311.173 150.761 316.798 156.857 323.244 156.857L391.572 156.271L392.393 123.446L339.418 136.811Z" fill="#7B5DDF"/>
<path d="M286.912 150.175C283.865 150.996 281.052 149.237 280.466 146.423C279.997 143.61 281.99 140.679 285.037 139.858C288.084 139.038 290.897 140.796 291.483 143.61C292.069 146.423 289.959 149.354 286.912 150.175Z" fill="#E8926D"/>
<path d="M282.693 147.01C282.576 147.01 282.341 146.892 282.224 146.775C281.99 146.541 281.99 146.189 282.224 145.955L287.029 141.734C287.264 141.5 287.615 141.5 287.85 141.734C288.084 141.969 288.084 142.32 287.85 142.555L283.045 146.775C283.045 147.01 282.927 147.01 282.693 147.01Z" fill="#1D1A23"/>
<path d="M288.319 146.892C288.084 146.892 287.967 146.775 287.85 146.658L285.74 143.961C285.506 143.727 285.623 143.375 285.857 143.141C286.092 142.906 286.443 143.024 286.678 143.258L288.787 145.954C289.022 146.189 288.904 146.54 288.67 146.775C288.553 146.775 288.436 146.892 288.319 146.892Z" fill="#1D1A23"/>
<mask id="mask1_147_1032" style="mask-type:luminance" maskUnits="userSpaceOnUse" x="279" y="124" width="7" height="11">
<path d="M283.865 124.266C283.865 124.266 276.13 127.666 281.404 134.348C281.404 134.348 288.787 131.418 283.865 124.266Z" fill="white"/>
</mask>
<g mask="url(#mask1_147_1032)">
<path d="M283.279 132.004C285.61 132.004 287.498 130.114 287.498 127.783C287.498 125.453 285.61 123.563 283.279 123.563C280.949 123.563 279.06 125.453 279.06 127.783C279.06 130.114 280.949 132.004 283.279 132.004Z" fill="#1D1A23"/>
</g>
<path d="M272.028 135.403C272.028 135.403 270.27 127.666 265.464 127.783C265.464 127.783 269.801 125.321 272.028 129.307C274.254 133.293 272.028 135.403 272.028 135.403Z" fill="#FEA419"/>
<path d="M312.345 136.928C312.11 136.928 311.876 136.693 311.876 136.459L314.806 104.571C314.806 104.337 315.04 104.22 315.275 104.22L317.736 104.337L322.541 30.1288C321.838 29.6598 320.197 28.253 319.142 23.9154C319.142 23.681 319.26 23.4465 319.494 23.3293C319.728 23.212 319.963 23.4465 320.08 23.681C321.252 28.4875 323.244 29.4254 323.244 29.4254C323.362 29.5426 323.479 29.6598 323.479 29.8943L318.556 104.806C318.556 105.04 318.322 105.275 318.088 105.275L315.626 105.158L312.696 136.693C312.814 136.81 312.579 136.928 312.345 136.928Z" fill="#1D1A23"/>
<path d="M339.418 137.162C339.184 137.162 338.949 136.928 338.949 136.693L340.356 122.391C340.356 122.156 340.59 121.922 340.824 122.039C341.059 122.039 341.293 122.274 341.176 122.508L339.77 136.811C339.77 137.045 339.652 137.162 339.418 137.162Z" fill="#1D1A23"/>
<path d="M535.26 366H88.0232C84.3899 366 81.46 363.069 81.46 359.435V329.775C81.46 326.141 84.3899 323.21 88.0232 323.21H535.26C538.893 323.21 541.823 326.141 541.823 329.775V359.435C541.706 363.069 538.776 366 535.26 366Z" fill="#FD521B"/>
<path d="M541.706 361.662H360.514C357.349 361.662 354.888 359.083 354.888 356.035V333.409C354.888 330.244 357.467 327.782 360.514 327.782H541.823V361.662H541.706Z" fill="white"/>
<path d="M32.7046 316.762V286.751C32.7046 283.117 35.6346 280.186 39.2679 280.186H504.788C508.421 280.186 511.351 283.117 511.351 286.751V316.762C511.351 320.397 508.421 323.327 504.788 323.327H39.2679C35.6346 323.327 32.7046 320.397 32.7046 316.762Z" fill="#DCD3F9"/>
<path d="M260.073 273.738V250.292C260.073 246.657 263.003 243.727 266.637 243.727H581.437C585.07 243.727 588 246.657 588 250.292V273.738C588 277.372 585.07 280.303 581.437 280.303H266.637C263.003 280.303 260.073 277.372 260.073 273.738Z" fill="#FEA419"/>
<path d="M213.779 237.161V211.722C213.779 208.088 216.709 205.157 220.343 205.157H535.143C538.776 205.157 541.706 208.088 541.706 211.722V237.161C541.706 240.795 538.776 243.726 535.143 243.726H220.343C216.709 243.726 213.779 240.795 213.779 237.161Z" fill="#7B5DDF"/>
<path d="M511.351 318.756H377.625C373.992 318.756 371.179 315.825 371.179 312.308V291.44C371.179 287.806 374.109 284.993 377.625 284.993H511.351V318.756Z" fill="white"/>
<path d="M467.987 353.104H394.15C393.799 353.104 393.564 352.87 393.564 352.518C393.564 352.166 393.799 351.932 394.15 351.932H467.987C468.338 351.932 468.573 352.166 468.573 352.518C468.573 352.87 468.221 353.104 467.987 353.104Z" fill="#DCD3F9"/>
<path d="M523.071 346.891H402.823C402.472 346.891 402.237 346.657 402.237 346.305C402.237 345.953 402.472 345.719 402.823 345.719H523.071C523.422 345.719 523.657 345.953 523.657 346.305C523.657 346.539 523.422 346.891 523.071 346.891Z" fill="#DCD3F9"/>
<path d="M536.666 341.616H361.452C361.1 341.616 360.866 341.381 360.866 341.03C360.866 340.678 361.1 340.443 361.452 340.443H536.666C537.018 340.443 537.252 340.678 537.252 341.03C537.252 341.381 537.018 341.616 536.666 341.616Z" fill="#DCD3F9"/>
<path d="M465.526 336.457H361.452C361.1 336.457 360.866 336.223 360.866 335.871C360.866 335.519 361.1 335.285 361.452 335.285H465.526C465.877 335.285 466.112 335.519 466.112 335.871C466.112 336.223 465.76 336.457 465.526 336.457Z" fill="#DCD3F9"/>
<path d="M245.892 199.178V161.898C245.892 158.264 248.822 155.333 252.455 155.333H572.529C576.163 155.333 579.093 158.264 579.093 161.898V199.178C579.093 202.812 576.163 205.743 572.529 205.743H252.455C248.822 205.743 245.892 202.812 245.892 199.178Z" fill="#FFB6C8"/>
<path d="M465.526 198.006H261.714C260.073 198.006 258.784 196.716 258.784 195.075V166.001C258.784 164.36 260.073 163.071 261.714 163.071H465.526C467.166 163.071 468.456 164.36 468.456 166.001V195.075C468.338 196.716 467.049 198.006 465.526 198.006ZM261.714 165.532C261.363 165.532 261.128 165.767 261.128 166.119V195.192C261.128 195.544 261.363 195.778 261.714 195.778H465.526C465.877 195.778 466.112 195.544 466.112 195.192V166.119C466.112 165.767 465.877 165.532 465.526 165.532H261.714Z" fill="white"/>
<path d="M450.875 176.669H271.91C271.207 176.669 270.738 176.2 270.738 175.497C270.738 174.794 271.207 174.325 271.91 174.325H450.875C451.578 174.325 452.047 174.794 452.047 175.497C452.047 176.083 451.461 176.669 450.875 176.669Z" fill="white"/>
<path d="M450.875 186.869H271.91C271.207 186.869 270.738 186.4 270.738 185.696C270.738 184.993 271.207 184.524 271.91 184.524H450.875C451.578 184.524 452.047 184.993 452.047 185.696C452.047 186.4 451.461 186.869 450.875 186.869Z" fill="white"/>
<path d="M499.396 302.46H379.149C378.797 302.46 378.563 302.226 378.563 301.874C378.563 301.522 378.797 301.288 379.149 301.288H499.396C499.748 301.288 499.982 301.522 499.982 301.874C499.982 302.108 499.748 302.46 499.396 302.46Z" fill="#DCD3F9"/>
<path d="M507.014 298.591H386.767C386.415 298.591 386.181 298.357 386.181 298.005C386.181 297.653 386.415 297.419 386.767 297.419H507.014C507.366 297.419 507.6 297.653 507.6 298.005C507.6 298.357 507.366 298.591 507.014 298.591Z" fill="#DCD3F9"/>
<path d="M425.092 343.609L418.294 332.706C418.059 332.354 417.708 332.354 417.474 332.706L410.676 343.609C410.324 344.195 409.738 343.726 409.738 342.905V294.605C409.738 294.019 409.973 293.667 410.324 293.667H425.443C425.795 293.667 426.029 294.136 426.029 294.605V342.905C426.029 343.843 425.443 344.195 425.092 343.609Z" fill="#7B5DDF"/>
<path d="M481.816 294.254H377.742C377.391 294.254 377.156 294.019 377.156 293.667C377.156 293.316 377.391 293.081 377.742 293.081H481.816C482.168 293.081 482.402 293.316 482.402 293.667C482.402 294.019 482.168 294.254 481.816 294.254Z" fill="#DCD3F9"/>
<path d="M532.095 225.673H308.243C307.54 225.673 307.071 225.204 307.071 224.5C307.071 223.797 307.54 223.328 308.243 223.328H532.095C532.799 223.328 533.267 223.797 533.267 224.5C533.267 225.086 532.799 225.673 532.095 225.673Z" fill="#DCD3F9"/>
<path d="M532.095 216.294H384.54C383.837 216.294 383.368 215.825 383.368 215.122C383.368 214.418 383.837 213.949 384.54 213.949H532.095C532.799 213.949 533.267 214.418 533.267 215.122C533.267 215.825 532.799 216.294 532.095 216.294Z" fill="#DCD3F9"/>
<path d="M532.095 235.872H308.243C307.54 235.872 307.071 235.403 307.071 234.699C307.071 233.996 307.54 233.527 308.243 233.527H532.095C532.799 233.527 533.267 233.996 533.267 234.699C533.267 235.403 532.799 235.872 532.095 235.872Z" fill="#DCD3F9"/>
<path d="M287.264 354.746H123.183C121.425 354.746 120.019 353.339 120.019 351.581V337.982C120.019 336.223 121.425 334.816 123.183 334.816H287.264C289.022 334.816 290.428 336.223 290.428 337.982V351.581C290.428 353.222 289.022 354.746 287.264 354.746ZM123.183 337.044C122.715 337.044 122.363 337.396 122.363 337.864V351.463C122.363 351.932 122.715 352.284 123.183 352.284H287.264C287.733 352.284 288.084 351.932 288.084 351.463V337.864C288.084 337.396 287.733 337.044 287.264 337.044H123.183Z" fill="#FFB6C8"/>
<path d="M319.142 276.083H280.7C279.411 276.083 278.356 275.028 278.356 273.738V251.229C278.356 249.94 279.411 248.885 280.7 248.885H319.142C320.431 248.885 321.486 249.94 321.486 251.229V273.738C321.486 275.028 320.431 276.083 319.142 276.083ZM280.7 251.112V273.738H319.142V251.112H280.7Z" fill="#FD521B"/>
<path d="M358.053 319.927C357.35 319.927 356.881 319.458 356.881 318.755V285.109C356.881 284.406 357.35 283.937 358.053 283.937C358.756 283.937 359.225 284.406 359.225 285.109V318.755C359.225 319.458 358.756 319.927 358.053 319.927Z" fill="white"/>
<path d="M311.641 319.927C310.938 319.927 310.469 319.458 310.469 318.755V285.109C310.469 284.406 310.938 283.937 311.641 283.937C312.344 283.937 312.813 284.406 312.813 285.109V318.755C312.813 319.458 312.227 319.927 311.641 319.927Z" fill="white"/>
<path d="M303.555 319.927C302.852 319.927 302.383 319.458 302.383 318.755V285.109C302.383 284.406 302.852 283.937 303.555 283.937C304.258 283.937 304.727 284.406 304.727 285.109V318.755C304.727 319.458 304.141 319.927 303.555 319.927Z" fill="white"/>
<path d="M293.71 319.927C293.006 319.927 292.538 319.458 292.538 318.755V285.109C292.538 284.406 293.006 283.937 293.71 283.937C294.413 283.937 294.882 284.406 294.882 285.109V318.755C294.882 319.458 294.413 319.927 293.71 319.927Z" fill="white"/>
<path d="M330.511 277.255C329.808 277.255 329.339 276.786 329.339 276.083V248.885C329.339 248.182 329.808 247.713 330.511 247.713C331.214 247.713 331.683 248.182 331.683 248.885V276.083C331.683 276.669 331.214 277.255 330.511 277.255Z" fill="#FD521B"/>
<path d="M340.238 277.255C339.535 277.255 339.066 276.786 339.066 276.083V248.885C339.066 248.182 339.535 247.713 340.238 247.713C340.942 247.713 341.41 248.182 341.41 248.885V276.083C341.41 276.669 340.824 277.255 340.238 277.255Z" fill="#FD521B"/>
<path d="M349.966 277.255C349.263 277.255 348.794 276.786 348.794 276.083V248.885C348.794 248.182 349.263 247.713 349.966 247.713C350.669 247.713 351.138 248.182 351.138 248.885V276.083C351.138 276.669 350.552 277.255 349.966 277.255Z" fill="#FD521B"/>
<path d="M348.794 366C348.091 366 347.622 365.531 347.622 364.828V331.885C347.622 331.182 348.091 330.713 348.794 330.713C349.497 330.713 349.966 331.182 349.966 331.885V364.828C349.966 365.531 349.497 366 348.794 366Z" fill="#1D1A23"/>
</svg>
