<svg width="466" height="322" viewBox="0 0 466 322" fill="none" xmlns="http://www.w3.org/2000/svg">
<path d="M67.3621 322H327.514C328.661 322 329.552 321.106 329.552 319.957V277.952C329.552 276.803 328.661 275.909 327.514 275.909H67.3621C66.2161 275.909 65.3247 276.803 65.3247 277.952V319.957C65.3247 321.106 66.2161 322 67.3621 322Z" fill="#7B5DDF"/>
<path d="M38.3288 173.385H329.679C331.589 173.385 333.117 171.853 333.117 169.937V158.83C333.117 156.914 331.589 155.382 329.679 155.382H38.3288C36.4187 155.382 34.8906 156.914 34.8906 158.83V169.937C35.018 171.853 36.546 173.385 38.3288 173.385Z" fill="#FD521B"/>
<path d="M34.5393 169.513L333.148 169.513V159.044L34.5393 159.044V169.513Z" fill="white"/>
<path d="M65.3247 317.276H319.365C320.511 317.276 321.402 316.383 321.402 315.234V282.676C321.402 281.527 320.511 280.633 319.365 280.633H65.3247V317.276Z" fill="white"/>
<path d="M357.312 155.765H62.2685C60.3584 155.765 58.8303 154.233 58.8303 152.318V126.4C58.8303 124.485 60.3584 122.952 62.2685 122.952H357.312C359.222 122.952 360.75 124.485 360.75 126.4V152.318C360.75 154.233 359.222 155.765 357.312 155.765Z" fill="#FEA419"/>
<path d="M299.118 123.08H4.71186C2.67444 123.08 1.01904 121.421 1.01904 119.378V84.6499C1.01904 82.607 2.67444 80.9473 4.71186 80.9473H299.118C301.156 80.9473 302.811 82.607 302.811 84.6499V119.378C302.811 121.421 301.156 123.08 299.118 123.08Z" fill="#DCD3F9"/>
<path d="M252.385 111.462H12.2246C11.0785 111.462 10.0598 110.568 10.0598 109.291V96.9068C10.0598 95.7578 10.9512 94.7363 12.2246 94.7363H252.258C253.404 94.7363 254.422 95.6301 254.422 96.9068V109.291C254.422 110.441 253.531 111.462 252.385 111.462Z" fill="white"/>
<path d="M329.17 163.554H189.479C189.097 163.554 188.843 163.299 188.843 162.915C188.843 162.532 189.097 162.277 189.479 162.277H329.297C329.679 162.277 329.934 162.532 329.934 162.915C329.806 163.299 329.552 163.554 329.17 163.554Z" fill="#DCD3F9"/>
<path d="M240.542 166.618H89.0097C88.6277 166.618 88.373 166.363 88.373 165.98C88.373 165.597 88.6277 165.342 89.0097 165.342H240.542C240.924 165.342 241.179 165.597 241.179 165.98C241.179 166.235 240.797 166.618 240.542 166.618Z" fill="#DCD3F9"/>
<path d="M285.62 213.603H27.2505C25.2131 213.603 23.6851 211.943 23.6851 210.028V176.96C23.6851 174.917 25.3405 173.385 27.2505 173.385H285.62C287.658 173.385 289.186 175.045 289.186 176.96V210.028C289.186 211.943 287.658 213.603 285.62 213.603Z" fill="#7B5DDF"/>
<path d="M285.62 213.603H27.2505C25.2131 213.603 23.6851 211.943 23.6851 210.028V176.96C23.6851 174.917 25.3405 173.385 27.2505 173.385H285.62C287.658 173.385 289.186 175.045 289.186 176.96V210.028C289.186 211.943 287.658 213.603 285.62 213.603Z" fill="#7B5DDF"/>
<path d="M99.1966 206.963H23.8123V178.747H99.1966C100.088 178.747 100.725 179.385 100.725 180.279V205.304C100.725 206.325 99.9606 206.963 99.1966 206.963Z" fill="white"/>
<path d="M267.411 203.899H118.679C117.406 203.899 116.26 202.878 116.26 201.474V184.237C116.26 182.961 117.279 181.812 118.679 181.812H267.538C268.811 181.812 269.958 182.833 269.958 184.237V201.474C269.83 202.878 268.811 203.899 267.411 203.899ZM118.807 201.346H267.283V184.365H118.807V201.346Z" fill="#DCD3F9"/>
<path d="M142.746 139.551L143.765 157.681C144.274 166.363 150.641 173.129 158.409 173.002L209.472 172.619C216.857 172.619 223.097 166.235 223.861 157.808L226.408 129.081L165.667 119.505L141.346 131.762L142.746 139.551Z" fill="#FFB6C8"/>
<path d="M142.746 139.551L143.765 157.681C144.274 166.363 150.641 173.129 158.409 173.002L209.472 172.619C216.857 172.619 223.097 166.235 223.861 157.808L226.408 129.081L165.667 119.505L141.346 131.762L142.746 139.551Z" fill="#FFB6C8"/>
<path d="M135.998 79.543L226.79 73.9253L227.681 147.084H139.308L135.998 79.543Z" fill="#FD521B"/>
<path d="M205.779 173.129H192.663V197.388H205.779V173.129Z" fill="white"/>
<path d="M205.779 197.771H192.663C192.408 197.771 192.154 197.516 192.154 197.26V173.002C192.154 172.746 192.408 172.491 192.663 172.491H205.779C206.034 172.491 206.288 172.746 206.288 173.002V197.26C206.288 197.516 206.034 197.771 205.779 197.771ZM193.173 196.749H205.397V173.512H193.173V196.749Z" fill="#1D1A23"/>
<path d="M176.746 173.129H163.63V197.388H176.746V173.129Z" fill="white"/>
<path d="M176.873 197.771H163.757C163.502 197.771 163.248 197.516 163.248 197.26V173.002C163.248 172.746 163.502 172.491 163.757 172.491H176.873C177.128 172.491 177.382 172.746 177.382 173.002V197.26C177.382 197.516 177.128 197.771 176.873 197.771ZM164.139 196.749H176.364V173.512H164.139V196.749Z" fill="#1D1A23"/>
<path d="M176.873 52.9862L155.353 42.6444C147.203 38.6864 137.398 43.6658 135.87 52.4755L123.263 126.528C122.245 132.528 125.683 138.274 131.413 140.444C138.162 142.998 145.675 139.551 148.094 133.039L165.285 87.3311L193.172 91.5444L189.352 50.688L176.873 52.9862Z" fill="#FD521B"/>
<path d="M196.228 52.9864L217.494 42.7723C225.771 38.8144 235.576 43.7938 237.104 52.7311L249.71 126.528C250.729 132.529 247.291 138.274 241.561 140.445C234.812 142.998 227.299 139.551 224.879 133.039L207.561 87.2037L179.674 91.417L183.494 50.5606L196.228 52.9864Z" fill="#FD521B"/>
<path d="M168.341 44.0488L169.997 67.2859L179.292 71.3715L174.708 46.347L168.341 44.0488Z" fill="#7B5DDF"/>
<path d="M168.341 44.0488L169.997 67.2859L179.292 71.3715L174.708 46.347L168.341 44.0488Z" fill="#7B5DDF"/>
<path d="M127.848 121.421H127.72C127.466 121.293 127.338 121.038 127.466 120.782L143.001 76.9892C143.001 76.8616 143.128 76.7339 143.256 76.7339C143.383 76.7339 143.51 76.7339 143.638 76.7339L155.353 81.2026C155.608 81.3302 155.735 81.5856 155.608 81.8409C155.48 82.0963 155.226 82.224 154.971 82.0963L143.638 77.7553L128.357 121.038C128.23 121.293 128.102 121.421 127.848 121.421Z" fill="#1D1A23"/>
<path d="M243.471 124.996C243.216 124.996 243.089 124.868 242.962 124.613L228.827 80.4365L220.168 84.7775C219.913 84.9052 219.659 84.7775 219.531 84.5222C219.404 84.2668 219.531 84.0115 219.786 83.8838L228.954 79.2875C229.082 79.2875 229.209 79.1598 229.336 79.2875C229.464 79.2875 229.591 79.4151 229.591 79.5428L243.853 124.229C243.98 124.485 243.853 124.74 243.598 124.868C243.471 124.996 243.471 124.996 243.471 124.996Z" fill="#1D1A23"/>
<path d="M204.251 41.3677L207.562 65.6262L197.248 78.1384L198.521 51.4541L204.251 41.3677Z" fill="#7B5DDF"/>
<path d="M204.251 41.3677L207.562 65.6262L197.248 78.1384L198.521 51.4541L204.251 41.3677Z" fill="#1D1A23"/>
<path d="M227.681 137.763C227.554 137.763 227.427 137.636 227.299 137.508C227.172 137.38 220.55 126.783 212.655 101.12C212.528 100.865 212.655 100.609 212.91 100.482C213.165 100.354 213.419 100.482 213.547 100.737C221.442 126.272 228.063 136.869 228.063 136.869C228.191 137.125 228.191 137.38 227.936 137.508C227.809 137.763 227.809 137.763 227.681 137.763Z" fill="#1D1A23"/>
<path d="M219.531 105.334L188.715 118.357C188.461 118.484 188.206 118.229 188.206 117.974V72.5208C188.206 72.2654 188.333 72.1377 188.461 72.1377L219.277 59.1148C219.531 58.9871 219.786 59.2425 219.786 59.4978V104.951C219.786 105.078 219.786 105.206 219.531 105.334Z" fill="white"/>
<path d="M188.588 118.867C188.461 118.867 188.206 118.867 188.079 118.74C187.824 118.612 187.697 118.229 187.697 117.974V72.5208C187.697 72.1378 187.951 71.7548 188.206 71.6271L219.022 58.6041C219.277 58.4765 219.531 58.4764 219.786 58.7318C220.041 58.8595 220.168 59.2425 220.168 59.4979V104.951C220.168 105.334 219.913 105.717 219.659 105.844L188.843 118.867C188.843 118.867 188.715 118.867 188.588 118.867ZM219.404 59.4979L188.588 72.5208V117.974L219.277 104.951L219.404 59.4979Z" fill="#1D1A23"/>
<path d="M150.769 105.589L181.585 118.612C181.839 118.74 182.094 118.484 182.094 118.229V72.7761C182.094 72.5208 181.967 72.3931 181.839 72.3931L151.024 59.3701C150.769 59.2425 150.514 59.4978 150.514 59.7532V105.206C150.514 105.334 150.641 105.461 150.769 105.589Z" fill="white"/>
<path d="M181.839 119.122C181.712 119.122 181.585 119.122 181.457 118.995L150.641 105.972C150.259 105.844 150.132 105.461 150.132 105.078V59.6252C150.132 59.2421 150.259 58.9868 150.514 58.8591C150.769 58.7315 151.023 58.7314 151.278 58.7314L182.094 71.7544C182.476 71.8821 182.603 72.2651 182.603 72.6482V118.101C182.603 118.484 182.476 118.739 182.221 118.867C182.094 119.122 181.967 119.122 181.839 119.122ZM151.023 105.206L181.839 118.229L181.712 72.7758L150.896 59.7529L151.023 105.206Z" fill="#1D1A23"/>
<path d="M188.333 72.1375H181.457V117.335H188.333V72.1375Z" fill="#FEA419"/>
<path d="M188.333 117.974H181.457C181.075 117.974 180.82 117.718 180.82 117.335V72.1379C180.82 71.7549 181.075 71.4995 181.457 71.4995H188.333C188.715 71.4995 188.97 71.7549 188.97 72.1379V117.335C188.97 117.718 188.715 117.974 188.333 117.974ZM182.094 116.697H187.697V72.7763H182.094V116.697Z" fill="#FEA419"/>
<path d="M196.101 77.3721C195.337 77.3721 194.7 76.9891 194.318 76.223C193.936 75.2016 194.318 74.1802 195.337 73.6695L214.438 65.6259C215.456 65.2429 216.475 65.6259 216.984 66.6473C217.366 67.6687 216.984 68.6901 215.966 69.2008L196.865 77.2444C196.61 77.2444 196.356 77.3721 196.101 77.3721Z" fill="#FD521B"/>
<path d="M196.101 84.0116C195.847 84.0116 195.592 83.8839 195.465 83.6285C195.337 83.2455 195.465 82.9901 195.847 82.7348L214.948 74.6912C215.33 74.5635 215.584 74.6912 215.839 75.0742C216.094 75.4572 215.839 75.7126 215.457 75.968L196.356 84.0116C196.229 84.0116 196.229 84.0116 196.101 84.0116Z" fill="#FD521B"/>
<path d="M196.101 88.4803C195.847 88.4803 195.592 88.3526 195.465 88.0973C195.337 87.7142 195.465 87.4589 195.847 87.2035L214.948 79.1599C215.33 79.0323 215.584 79.1599 215.839 79.543C216.094 79.926 215.839 80.1813 215.457 80.4367L196.356 88.4803C196.229 88.4803 196.229 88.4803 196.101 88.4803Z" fill="#FD521B"/>
<path d="M139.054 141.338C138.799 141.338 138.672 141.211 138.544 140.955C138.544 140.7 138.672 140.445 138.926 140.445C138.926 140.445 144.402 139.551 146.057 135.721C148.349 130.23 154.844 113.122 154.971 112.994C155.098 112.739 155.353 112.611 155.608 112.739C155.862 112.866 155.99 113.122 155.862 113.377C155.735 113.505 149.241 130.613 146.949 136.104C145.166 140.445 139.308 141.338 139.054 141.338Z" fill="#1D1A23"/>
<path d="M156.499 65.6262L147.331 66.52C145.802 66.6476 144.784 68.3074 145.166 70.0949C145.548 71.8824 147.076 73.2868 148.604 73.0314L157.645 71.3717C158.918 71.1163 159.682 69.7119 159.3 68.0521C158.918 66.52 157.772 65.4986 156.499 65.6262Z" fill="#F4BD98"/>
<path d="M159.428 77.117L148.604 78.9045C147.458 79.0322 146.185 78.2661 145.675 76.9893L145.548 76.734C144.784 74.9465 145.675 72.9037 147.203 72.776L158.154 71.2439C159.428 71.1162 160.828 72.1376 161.21 73.6697C161.592 75.3295 160.828 76.9893 159.428 77.117Z" fill="#F4BD98"/>
<path d="M159.81 79.5428C159.428 78.266 158.282 77.3722 157.136 77.4999L149.877 78.3937C148.731 78.5213 147.84 79.6704 147.967 81.0749V81.7132C148.095 83.373 149.495 84.6498 150.896 84.2668L158.027 82.7347C159.428 82.4793 160.192 80.9472 159.81 79.5428Z" fill="#F4BD98"/>
<path d="M159.173 84.3946C158.791 83.5009 157.9 82.8625 157.008 82.9901L151.023 83.8839C150.005 84.0116 149.495 85.1606 149.75 86.3097L149.877 87.0758C150.132 88.3525 151.278 89.2463 152.424 88.9909L158.154 87.3311C159.3 87.0758 159.682 85.6714 159.173 84.3946Z" fill="#F4BD98"/>
<path d="M157.008 70.733C155.862 70.8607 154.716 70.0947 154.462 68.9456C154.207 67.7965 154.971 66.6474 156.117 66.5197C157.263 66.3921 158.409 67.1581 158.664 68.3072C158.919 69.4563 158.154 70.6054 157.008 70.733Z" fill="#FFB6C8"/>
<path d="M158.664 76.351C157.518 76.4786 156.372 75.7126 156.117 74.5635C155.862 73.4144 156.626 72.2653 157.772 72.1377C158.918 72.01 160.064 72.776 160.319 73.9251C160.574 75.0742 159.81 76.0956 158.664 76.351Z" fill="#FFB6C8"/>
<path d="M157.645 81.8412C156.626 81.9689 155.607 81.3305 155.48 80.4368C155.353 79.543 155.989 78.6493 157.008 78.394C158.027 78.2663 159.046 78.9046 159.174 79.7984C159.428 80.6921 158.664 81.5859 157.645 81.8412Z" fill="#FFB6C8"/>
<path d="M157.773 86.6927C157.009 86.8204 156.244 86.3097 156.117 85.5436C155.99 84.7775 156.499 84.0115 157.263 83.8838C158.027 83.7561 158.792 84.2669 158.919 85.0329C158.919 85.9266 158.537 86.6927 157.773 86.6927Z" fill="#FFB6C8"/>
<path d="M158.154 71.6269C158.282 71.6269 158.409 71.4992 158.409 71.2439C158.409 71.1162 158.282 70.9885 158.027 70.9885L148.476 72.5206C148.094 72.6483 147.33 72.5206 146.948 72.393C146.821 72.2653 146.566 72.393 146.566 72.5206C146.439 72.6483 146.566 72.9037 146.694 72.9037C147.203 73.159 148.094 73.159 148.604 73.0313L158.154 71.6269Z" fill="#1D1A23"/>
<path d="M157.645 77.883C157.773 77.883 157.9 77.6277 157.9 77.5C157.9 77.3723 157.645 77.2446 157.518 77.2446L151.788 78.266C151.406 78.3937 149.114 78.6491 148.477 78.6491C148.35 78.6491 148.222 78.7768 148.222 79.0321C148.222 79.1598 148.35 79.2875 148.604 79.2875C149.241 79.2875 151.533 78.9044 152.042 78.9044L157.645 77.883Z" fill="#1D1A23"/>
<path d="M157.263 83.3732C157.39 83.3732 157.518 83.1179 157.518 82.9902C157.518 82.8625 157.263 82.7349 157.136 82.7349C157.008 82.7349 155.226 83.1179 154.716 83.2456C154.207 83.3732 150.641 84.0116 150.132 84.1393C150.005 84.1393 149.877 84.267 149.877 84.5223C149.877 84.65 150.005 84.7777 150.259 84.7777C150.896 84.7777 154.462 84.0116 154.971 83.8839C155.353 83.7563 157.136 83.3732 157.263 83.3732Z" fill="#1D1A23"/>
<path d="M209.981 43.0276C210.618 40.0911 209.09 37.2822 206.67 36.8992C204.251 36.5161 201.831 38.5589 201.322 41.4955C200.685 44.4321 202.213 47.2409 204.633 47.624C207.052 48.007 209.472 45.9642 209.981 43.0276Z" fill="#F4BD98"/>
<path d="M203.36 44.3044C203.232 44.3044 203.105 44.3044 203.105 44.1767C202.85 44.049 202.85 43.666 202.978 43.5383L206.416 38.6866C206.543 38.4313 206.925 38.4313 207.053 38.559C207.307 38.6866 207.307 39.0697 207.18 39.1973L203.742 44.049C203.742 44.1767 203.487 44.3044 203.36 44.3044Z" fill="#1D1A23"/>
<path d="M206.798 44.9425C206.671 44.9425 206.543 44.9425 206.543 44.8149L204.251 42.8997C203.996 42.772 203.996 42.389 204.251 42.2613C204.378 42.006 204.76 42.006 204.887 42.2613L207.18 44.1765C207.435 44.3042 207.435 44.6872 207.18 44.8149C207.053 44.8149 206.925 44.9425 206.798 44.9425Z" fill="#1D1A23"/>
<path d="M163.248 44.8152C162.611 41.8787 164.139 39.0698 166.559 38.6868C168.978 38.3037 171.397 40.3466 171.907 43.2831C172.544 46.2197 171.015 49.0285 168.596 49.4116C166.304 49.9223 163.885 47.8795 163.248 44.8152Z" fill="#F4BD98"/>
<path d="M169.997 46.0917C169.869 46.0917 169.742 45.9641 169.615 45.8364L166.176 40.9847C166.049 40.7293 166.049 40.474 166.304 40.3463C166.558 40.2186 166.813 40.2186 166.94 40.474L170.379 45.3257C170.506 45.581 170.506 45.8364 170.251 45.9641C170.124 46.0917 169.997 46.0917 169.997 46.0917Z" fill="#1D1A23"/>
<path d="M166.559 46.7303C166.431 46.7303 166.304 46.7303 166.177 46.6027C166.049 46.3473 166.049 46.0919 166.177 45.9643L168.469 44.0491C168.724 43.9215 168.979 43.9215 169.106 44.0491C169.233 44.3045 169.233 44.5598 169.106 44.6875L166.813 46.6027C166.686 46.7303 166.686 46.7303 166.559 46.7303Z" fill="#1D1A23"/>
<path d="M211.891 73.2865L221.824 71.2437C223.479 70.8607 225.134 72.1375 225.389 73.9249C225.771 75.8401 224.498 77.4999 222.842 77.7552L212.783 79.032C211.255 79.1596 209.981 78.0106 209.726 76.4784C209.599 74.9463 210.49 73.6696 211.891 73.2865Z" fill="#F4BD98"/>
<path d="M213.037 85.1607L225.007 83.3732C226.28 83.2456 227.299 81.9688 227.426 80.5644V80.309C227.554 78.3939 225.898 76.7341 224.243 76.9894L212.273 79.0323C210.872 79.2876 209.854 80.692 209.981 82.3518C209.981 84.1393 211.382 85.416 213.037 85.1607Z" fill="#F4BD98"/>
<path d="M213.419 87.4584C213.292 86.1816 214.183 85.0326 215.457 84.7772L223.352 83.3728C224.625 83.1174 225.898 84.0112 226.28 85.2879L226.535 85.9263C227.045 87.5861 226.026 89.1182 224.37 89.3736L216.221 90.1396C214.82 90.1396 213.547 88.9905 213.419 87.4584Z" fill="#F4BD98"/>
<path d="M215.966 91.9274C216.094 90.906 216.73 90.0123 217.622 89.8846L224.243 88.8632C225.262 88.7355 226.281 89.5016 226.408 90.7783L226.535 91.5444C226.663 92.9488 225.771 94.0979 224.625 94.2256L218.004 94.4809C216.73 94.4809 215.839 93.3318 215.966 91.9274Z" fill="#F4BD98"/>
<path d="M213.165 78.3937C214.438 78.266 215.329 77.1169 215.202 75.9678C215.075 74.8187 213.801 74.0527 212.528 74.1804C211.255 74.3081 210.363 75.4571 210.491 76.6062C210.745 77.7553 211.891 78.5214 213.165 78.3937Z" fill="#FFB6C8"/>
<path d="M213.419 84.1393C214.693 84.0116 215.584 82.8625 215.457 81.7134C215.329 80.5644 214.056 79.7983 212.782 79.926C211.509 80.0537 210.618 81.2027 210.745 82.3518C211 83.5009 212.146 84.267 213.419 84.1393Z" fill="#FFB6C8"/>
<path d="M216.476 88.9905C217.622 88.8628 218.386 87.9691 218.259 86.9477C218.132 85.9262 217.113 85.4155 215.966 85.5432C214.82 85.6709 214.056 86.5646 214.183 87.586C214.311 88.6074 215.33 89.1181 216.476 88.9905Z" fill="#FFB6C8"/>
<path d="M218.259 93.7147C219.15 93.587 219.66 92.8209 219.532 92.0549C219.405 91.2888 218.641 90.7781 217.749 90.9058C216.858 91.0335 216.348 91.7995 216.475 92.5656C216.603 93.3316 217.367 93.8424 218.259 93.7147Z" fill="#FFB6C8"/>
<path d="M212.273 79.5426C212.146 79.5426 211.891 79.4149 211.891 79.2872C211.891 79.1595 212.018 78.9042 212.146 78.9042L222.715 77.3721C223.224 77.3721 223.988 76.989 224.243 76.7337C224.37 76.606 224.625 76.606 224.752 76.7337C224.88 76.8614 224.88 77.1167 224.752 77.1167C224.243 77.4998 223.352 77.7551 222.842 77.8828L212.273 79.5426Z" fill="#1D1A23"/>
<path d="M215.074 85.2884C214.947 85.2884 214.692 85.1608 214.692 85.0331C214.692 84.9054 214.82 84.6501 214.947 84.6501L221.314 83.884C221.823 83.884 224.37 83.3733 225.007 83.2456C225.134 83.2456 225.389 83.2456 225.389 83.501C225.389 83.6286 225.389 83.884 225.134 83.884C224.497 84.0117 221.951 84.5224 221.441 84.5224L215.074 85.2884Z" fill="#1D1A23"/>
<path d="M217.621 90.3951C217.494 90.3951 217.239 90.2675 217.239 90.1398C217.239 90.0121 217.367 89.7568 217.494 89.7568C217.621 89.7568 219.531 89.5014 220.168 89.5014C220.805 89.5014 224.752 88.9907 225.389 88.863C225.516 88.863 225.771 88.863 225.771 89.1184C225.771 89.2461 225.771 89.5014 225.516 89.5014C224.88 89.6291 220.805 90.1398 220.168 90.1398C219.659 90.1398 217.621 90.3951 217.621 90.3951Z" fill="#1D1A23"/>
<path d="M183.622 176.832L153.315 177.087L153.825 96.5238C153.825 87.8418 160.956 80.9473 169.487 81.075C178.146 81.2027 185.023 88.2249 184.895 96.9068L183.622 176.832Z" fill="#FFB6C8"/>
<path d="M215.329 175.045L185.15 176.194L183.112 95.6302C182.858 87.0759 189.734 79.7984 198.266 79.6707C206.925 79.543 214.056 86.3099 214.183 94.9919L215.329 175.045Z" fill="#FFB6C8"/>
<path d="M246.145 121.676C246.018 121.676 245.891 121.676 245.763 121.548L240.415 116.569C240.16 116.441 240.16 116.058 240.415 115.931C240.542 115.675 240.924 115.675 241.052 115.931L246.4 120.91C246.655 121.038 246.655 121.421 246.4 121.548C246.4 121.676 246.273 121.676 246.145 121.676Z" fill="#1D1A23"/>
<path d="M187.187 62.3067C196.611 62.3067 204.251 54.1324 204.251 44.049C204.251 33.9655 196.611 25.7913 187.187 25.7913C177.764 25.7913 170.124 33.9655 170.124 44.049C170.124 54.1324 177.764 62.3067 187.187 62.3067Z" fill="#F4BD98"/>
<path d="M203.232 38.0479C201.067 30.7704 194.573 25.9187 187.06 25.9187C178.146 25.9187 170.888 32.6855 169.997 41.2398C185.277 40.2184 189.097 29.6213 189.097 29.6213C190.371 37.0265 200.812 38.0479 203.232 38.0479Z" fill="#7B5DDF"/>
<path d="M183.24 48.2622C183.24 48.2622 179.675 41.4954 172.162 44.3043C172.162 44.4319 174.326 54.3907 183.24 48.2622Z" fill="white"/>
<path d="M190.753 48.2622C190.753 48.2622 194.318 41.4954 201.831 44.3043C201.831 44.4319 199.539 54.3907 190.753 48.2622Z" fill="white"/>
<path d="M187.315 57.0718C187.187 57.0718 187.06 57.0719 187.06 56.9442L184.386 54.7737C184.131 54.646 184.131 54.263 184.258 54.1353C184.386 53.88 184.768 53.8799 184.895 54.0076L187.315 55.9228L189.479 53.8799C189.607 53.7523 189.989 53.7523 190.116 53.8799C190.243 54.1353 190.243 54.3906 190.116 54.5183L187.697 56.8165C187.569 57.0718 187.442 57.0718 187.315 57.0718Z" fill="#1D1A23"/>
<path d="M185.15 50.9435C185.023 50.9435 185.023 50.9435 184.895 50.9435C184.641 50.8159 184.513 50.5605 184.641 50.3052L186.296 46.8579C186.423 46.7302 186.551 46.6025 186.678 46.6025C186.806 46.6025 187.06 46.6025 187.06 46.8579L189.352 50.1775C189.48 50.4328 189.48 50.6882 189.225 50.8159C188.97 50.9435 188.716 50.9435 188.588 50.6882L186.806 48.1346L185.532 50.9435C185.532 50.8159 185.277 50.9435 185.15 50.9435Z" fill="#1D1A23"/>
<path d="M174.581 41.7504C174.454 41.7504 174.199 41.6228 174.199 41.4951C174.072 41.2397 174.199 40.9844 174.454 40.8567C179.292 38.6862 183.367 40.729 183.495 40.8567C183.749 40.9844 183.877 41.2397 183.749 41.4951C183.622 41.7504 183.367 41.8781 183.113 41.7504C183.113 41.7504 179.292 39.8353 174.836 41.7504C174.708 41.7504 174.581 41.7504 174.581 41.7504Z" fill="#1D1A23"/>
<path d="M200.176 41.7508C200.049 41.7508 199.921 41.7508 199.921 41.6231C195.974 38.6866 192.154 41.1124 192.026 41.2401C191.772 41.3678 191.517 41.3678 191.39 41.1124C191.262 40.8571 191.262 40.6017 191.517 40.474C191.517 40.474 195.974 37.5375 200.558 40.8571C200.813 40.9847 200.813 41.3678 200.686 41.4954C200.431 41.6231 200.303 41.7508 200.176 41.7508Z" fill="#1D1A23"/>
<mask id="mask0_147_1030" style="mask-type:luminance" maskUnits="userSpaceOnUse" x="172" y="43" width="12" height="8">
<path d="M183.24 48.2622C183.24 48.2622 179.675 41.4954 172.162 44.3043C172.162 44.4319 174.326 54.3907 183.24 48.2622Z" fill="white"/>
</mask>
<g mask="url(#mask0_147_1030)">
<path d="M177.637 52.8587C180.169 52.8587 182.222 50.8009 182.222 48.2624C182.222 45.7239 180.169 43.666 177.637 43.666C175.106 43.666 173.053 45.7239 173.053 48.2624C173.053 50.8009 175.106 52.8587 177.637 52.8587Z" fill="#1D1A23"/>
</g>
<mask id="mask1_147_1030" style="mask-type:luminance" maskUnits="userSpaceOnUse" x="190" y="43" width="12" height="8">
<path d="M190.753 48.2622C190.753 48.2622 194.318 41.4954 201.831 44.3043C201.831 44.4319 199.539 54.3907 190.753 48.2622Z" fill="white"/>
</mask>
<g mask="url(#mask1_147_1030)">
<path d="M196.101 52.8587C198.633 52.8587 200.685 50.8009 200.685 48.2624C200.685 45.7239 198.633 43.666 196.101 43.666C193.57 43.666 191.517 45.7239 191.517 48.2624C191.517 50.8009 193.57 52.8587 196.101 52.8587Z" fill="#1D1A23"/>
</g>
<path d="M184.004 173.002C183.75 173.002 183.495 172.747 183.495 172.491L183.113 88.9912C183.113 88.7358 183.368 88.4805 183.622 88.4805C183.877 88.4805 184.132 88.7358 184.132 88.9912L184.514 172.491C184.514 172.747 184.259 173.002 184.004 173.002Z" fill="#1D1A23"/>
<path d="M153.316 171.342C153.061 171.342 152.806 171.087 152.806 170.832V147.084C152.806 146.829 153.061 146.573 153.316 146.573C153.57 146.573 153.825 146.829 153.825 147.084V170.832C153.825 171.215 153.57 171.342 153.316 171.342Z" fill="#1D1A23"/>
<path d="M215.33 170.576C215.075 170.576 214.82 170.321 214.82 170.066L214.311 147.084C214.311 146.829 214.565 146.573 214.82 146.573C215.202 146.573 215.33 146.829 215.33 147.084L215.839 170.066C215.839 170.321 215.584 170.576 215.33 170.576Z" fill="#1D1A23"/>
<path d="M178.528 188.578L184.131 213.22L159.173 213.603L161.974 187.94L164.394 188.195L164.776 185.769C165.158 182.961 167.577 180.79 170.379 180.79C173.307 180.79 175.854 183.088 175.982 186.152L176.109 188.834L178.528 188.578Z" fill="#FEA419"/>
<path d="M175.982 197.133L160.319 196.111C160.064 196.111 159.937 195.984 159.937 195.728C159.937 195.473 160.064 195.345 160.192 195.218L173.817 190.494L159.3 188.962C159.046 188.962 158.791 188.706 158.918 188.451C158.918 188.196 159.173 187.94 159.428 188.068L176.109 189.728C176.364 189.728 176.491 189.983 176.491 190.111C176.491 190.366 176.364 190.494 176.236 190.621L162.866 195.345L176.109 196.111C176.364 196.111 176.618 196.367 176.618 196.622C176.491 196.878 176.236 197.133 175.982 197.133Z" fill="#1D1A23"/>
<path d="M160.192 204.793C160.064 204.793 159.937 204.793 159.937 204.665C159.682 204.538 159.682 204.154 159.937 204.027C163.63 199.558 167.577 197.388 171.652 197.515C177.764 197.643 181.839 203.005 181.967 203.261C182.094 203.516 182.094 203.771 181.839 203.899C181.585 204.027 181.33 204.027 181.203 203.771C181.203 203.771 177.255 198.537 171.652 198.409C167.959 198.281 164.267 200.452 160.701 204.665C160.574 204.793 160.446 204.793 160.192 204.793Z" fill="#1D1A23"/>
<path d="M190.88 188.578L185.277 213.22L210.236 213.603L207.434 187.94L205.015 188.195L204.633 185.769C204.251 182.961 201.831 180.79 199.03 180.79C196.101 180.79 193.554 183.088 193.427 186.152L193.3 188.834L190.88 188.578Z" fill="#FEA419"/>
<path d="M193.3 197.133C193.045 197.133 192.791 196.877 192.791 196.622C192.791 196.367 192.918 196.111 193.3 196.111L206.543 195.345L193.173 190.621C192.918 190.493 192.791 190.366 192.918 190.11C193.045 189.855 193.173 189.727 193.3 189.727L209.981 188.068C210.236 188.068 210.491 188.195 210.491 188.451C210.491 188.706 210.363 188.961 210.109 188.961L195.592 190.493L209.217 195.218C209.472 195.345 209.599 195.473 209.472 195.728C209.472 195.984 209.217 196.111 209.09 196.111L193.3 197.133Z" fill="#1D1A23"/>
<path d="M209.09 204.793C208.962 204.793 208.835 204.793 208.708 204.665C205.142 200.452 201.449 198.409 197.756 198.409C192.154 198.537 188.206 203.771 188.206 203.771C188.079 204.027 187.697 204.027 187.569 203.899C187.315 203.771 187.315 203.388 187.442 203.261C187.569 203.005 191.644 197.643 197.756 197.515C201.831 197.388 205.779 199.558 209.472 204.027C209.599 204.282 209.599 204.538 209.472 204.665C209.344 204.793 209.217 204.793 209.09 204.793Z" fill="#1D1A23"/>
<path d="M372.974 273.483V215.007C372.974 213.731 371.956 212.582 370.555 212.582H2.41943C1.14605 212.582 0 213.603 0 215.007V273.483C0 274.76 1.01871 275.909 2.41943 275.909H370.682C371.956 275.909 372.974 274.888 372.974 273.483Z" fill="#FFB6C8"/>
<path d="M2.41943 269.142H262.317C263.591 269.142 264.737 268.121 264.737 266.716V221.774C264.737 220.497 263.718 219.348 262.317 219.348H2.41943C1.14605 219.348 0 220.37 0 221.774V266.716C0 268.121 1.01871 269.142 2.41943 269.142Z" fill="white"/>
<path d="M364.315 263.269H294.661C293.388 263.269 292.369 262.247 292.369 260.971V227.775C292.369 226.498 293.388 225.477 294.661 225.477H364.315C365.589 225.477 366.607 226.498 366.607 227.775V260.971C366.607 262.247 365.589 263.269 364.315 263.269ZM294.916 260.715H364.061V227.902H294.916V260.715Z" fill="white"/>
<path d="M274.542 277.186C273.778 277.186 273.268 276.675 273.268 275.909V212.709C273.268 211.943 273.778 211.432 274.542 211.432C275.306 211.432 275.815 211.943 275.815 212.709V275.909C275.815 276.675 275.179 277.186 274.542 277.186Z" fill="white"/>
<path d="M264.1 117.08C263.336 117.08 262.827 116.569 262.827 115.803V89.2462C262.827 88.4802 263.336 87.9695 264.1 87.9695C264.865 87.9695 265.374 88.4802 265.374 89.2462V115.803C265.374 116.569 264.737 117.08 264.1 117.08Z" fill="white"/>
<path d="M272.377 117.08C271.613 117.08 271.104 116.569 271.104 115.803V89.2462C271.104 88.4802 271.613 87.9695 272.377 87.9695C273.141 87.9695 273.651 88.4802 273.651 89.2462V115.803C273.651 116.569 273.141 117.08 272.377 117.08Z" fill="white"/>
<path d="M50.4261 256.119H22.7936C21.6476 256.119 21.0109 254.715 21.7749 253.821L31.0706 244.245H63.1599L52.5908 255.098C52.2088 255.736 51.3174 256.119 50.4261 256.119Z" fill="#7B5DDF"/>
<path d="M236.722 239.01H83.7888C83.4068 239.01 83.1521 238.755 83.1521 238.372C83.1521 237.989 83.4068 237.734 83.7888 237.734H236.85C237.232 237.734 237.486 237.989 237.486 238.372C237.486 238.755 237.104 239.01 236.722 239.01Z" fill="#DCD3F9"/>
<path d="M228.445 261.992H200.813C199.667 261.992 199.03 260.588 199.794 259.694L209.09 250.118H241.179L230.61 260.971C230.101 261.609 229.336 261.992 228.445 261.992Z" fill="#FEA419"/>
<path d="M141.552 251.012H113.92C112.774 251.012 112.137 249.608 112.901 248.714L122.197 239.138H154.286L143.717 249.991C143.335 250.629 142.443 251.012 141.552 251.012Z" fill="#FFB6C8"/>
<path d="M263.081 250.884H178.528C178.146 250.884 177.892 250.629 177.892 250.246C177.892 249.863 178.146 249.607 178.528 249.607H263.081C263.463 249.607 263.718 249.863 263.718 250.246C263.718 250.629 263.463 250.884 263.081 250.884Z" fill="#DCD3F9"/>
<path d="M85.5715 245.011H1.01877C0.636757 245.011 0.38208 244.756 0.38208 244.373C0.38208 243.989 0.636757 243.734 1.01877 243.734H85.5715C85.9535 243.734 86.2082 243.989 86.2082 244.373C86.2082 244.628 85.9535 245.011 85.5715 245.011Z" fill="#DCD3F9"/>
<path d="M241.943 302.593H102.125C101.743 302.593 101.489 302.338 101.489 301.955C101.489 301.572 101.743 301.316 102.125 301.316H241.943C242.325 301.316 242.58 301.572 242.58 301.955C242.58 302.338 242.325 302.593 241.943 302.593Z" fill="#DCD3F9"/>
<path d="M318.219 287.783H178.528C178.146 287.783 177.892 287.528 177.892 287.144C177.892 286.761 178.146 286.506 178.528 286.506H318.346C318.728 286.506 318.983 286.761 318.983 287.144C318.855 287.4 318.601 287.783 318.219 287.783Z" fill="#DCD3F9"/>
<path d="M273.014 308.466H96.0132C95.6311 308.466 95.3765 308.211 95.3765 307.828C95.3765 307.445 95.6311 307.189 96.0132 307.189H273.014C273.396 307.189 273.65 307.445 273.65 307.828C273.65 308.211 273.396 308.466 273.014 308.466Z" fill="#DCD3F9"/>
<path d="M229.591 290.719H78.0586C77.6766 290.719 77.4219 290.464 77.4219 290.081C77.4219 289.698 77.6766 289.442 78.0586 289.442H229.591C229.973 289.442 230.228 289.698 230.228 290.081C230.228 290.464 229.846 290.719 229.591 290.719Z" fill="#DCD3F9"/>
<path d="M317.582 296.72H156.499C156.117 296.72 155.862 296.465 155.862 296.081C155.862 295.698 156.117 295.443 156.499 295.443H317.582C317.964 295.443 318.219 295.698 318.219 296.081C318.219 296.465 317.964 296.72 317.582 296.72Z" fill="#DCD3F9"/>
<path d="M210.108 213.22H159.173C158.918 213.22 158.664 212.965 158.664 212.709C158.664 212.454 158.918 212.198 159.173 212.198H210.108C210.363 212.198 210.618 212.454 210.618 212.709C210.618 212.965 210.363 213.22 210.108 213.22Z" fill="#1D1A23"/>
<path d="M171.143 244.373H143.51C142.364 244.373 141.727 242.968 142.491 242.075L151.787 232.499H183.876L173.307 243.352C172.925 243.99 172.034 244.373 171.143 244.373Z" fill="#FD521B"/>
<path d="M243.471 233.137H49.6621C49.2801 233.137 49.0254 232.882 49.0254 232.499C49.0254 232.116 49.2801 231.86 49.6621 231.86H243.471C243.853 231.86 244.108 232.116 244.108 232.499C244.108 232.882 243.726 233.137 243.471 233.137Z" fill="#DCD3F9"/>
<path d="M416.706 90.172L406.847 92.1725L401.331 79.1101L412.95 78.1687L416.706 90.172Z" fill="#E8926D"/>
<path d="M411.424 67.3426L415.649 90.5254C415.766 91.1138 416.471 91.4668 417.057 90.9961L446.399 67.8133C446.634 67.5779 446.752 67.3426 446.752 66.9895L442.526 43.8068C442.409 43.2184 441.705 42.8653 441.118 43.336L411.776 66.5188C411.541 66.7542 411.424 67.1072 411.424 67.3426Z" fill="#7B5DDF"/>
<path d="M406.847 92.1725L410.368 91.4664L407.551 78.1687L401.331 79.1101L406.847 92.1725Z" fill="#1D1A23"/>
<path d="M410.837 69.8133L415.65 90.6425C415.767 91.2309 416.471 91.4662 417.058 91.1132L445.344 68.7542C445.578 68.5188 445.696 68.2835 445.696 67.9304L441.94 46.3951C441.823 45.8067 441.118 45.4537 440.532 45.9244L411.19 68.9895C410.837 69.2249 410.72 69.5779 410.837 69.8133Z" fill="white"/>
<path d="M370.58 143.834L432.903 286.814L418.466 291.521L350.745 169.841L370.58 143.834Z" fill="#E8926D"/>
<path d="M357.787 87.1123L374.101 52.8677C376.214 48.3959 376.097 43.218 373.867 38.7462L371.754 34.8628L333.844 89.5836L344.642 96.2913L357.787 87.1123Z" fill="white"/>
<path d="M344.642 96.6444C344.524 96.6444 344.524 96.6444 344.407 96.5267L333.609 89.819C333.492 89.7013 333.492 89.7013 333.375 89.5836C333.375 89.4659 333.375 89.3483 333.492 89.2306L371.519 34.5098C371.636 34.3921 371.754 34.2744 371.871 34.2744C371.989 34.2744 372.106 34.3921 372.223 34.5098L374.336 38.3932C376.683 42.865 376.801 48.2782 374.571 52.8677L358.256 87.1124C358.256 87.23 358.139 87.23 358.139 87.23L344.877 96.2913C344.759 96.6444 344.642 96.6444 344.642 96.6444ZM334.431 89.4659L344.642 95.7029L357.552 86.877L373.866 52.7501C375.979 48.3959 375.862 43.3357 373.632 39.0993L371.871 35.8042L334.431 89.4659Z" fill="#1D1A23"/>
<path d="M356.261 179.844L350.745 169.841L370.58 143.834L374.571 152.778L356.261 179.844Z" fill="#1D1A23"/>
<path d="M407.903 94.6438L357.905 117.003L346.285 103.823L400.979 78.1687L407.903 94.6438Z" fill="white"/>
<path d="M357.904 117.474C357.787 117.474 357.67 117.474 357.552 117.356L345.933 104.176C345.815 104.058 345.815 103.94 345.815 103.823C345.815 103.705 345.933 103.587 346.05 103.47L400.744 77.8157C400.861 77.8157 400.978 77.8157 401.096 77.8157C401.213 77.8157 401.33 77.9334 401.33 78.051L408.255 94.5261C408.372 94.7615 408.255 94.9968 408.02 95.1145L358.022 117.474H357.904ZM346.989 104.058L358.022 116.532L407.316 94.5261L400.744 78.8748L346.989 104.058Z" fill="#1D1A23"/>
<path d="M360.017 205.145L397.34 154.307L372.928 142.539L388.185 121.475L421.987 140.539C427.621 143.716 428.912 151.248 424.687 156.073L372.81 215.736L360.017 205.145Z" fill="#E8926D"/>
<path d="M386.308 149.012L372.928 142.657L388.186 121.592L394.171 124.887L386.308 149.012Z" fill="#1D1A23"/>
<path d="M318.586 105.941C317.765 112.766 318.351 116.532 328.328 135.832C338.304 155.013 354.149 177.255 354.149 177.255L392.058 123.711L353.914 104.529L358.374 32.5093C358.374 32.5093 346.285 44.0418 338.891 57.1042C329.267 74.05 320.112 92.408 318.586 105.941Z" fill="#FD521B"/>
<path d="M382.552 32.1563L372.575 39.6877L365.064 31.0971L375.392 22.9773L382.552 32.1563Z" fill="#E8926D"/>
<path d="M375.979 37.0988L372.223 25.4486L375.392 22.9773L382.551 32.1563L375.979 37.0988Z" fill="#1D1A23"/>
<path d="M371.167 48.1608L350.745 98.8805L341.121 93.7026L366.472 44.042L371.167 48.1608Z" fill="#FD521B"/>
<path d="M393.702 80.5226C393.702 80.5226 399.687 83.1116 407.081 80.2873C414.476 77.3453 420.814 65.1067 420.814 65.1067C420.814 65.1067 402.269 66.4011 396.518 68.9901C390.767 71.4613 393.702 80.5226 393.702 80.5226Z" fill="#E8926D"/>
<path d="M394.171 69.9312L396.636 68.8721L400.626 81.5814L397.34 81.346L394.171 69.9312Z" fill="#1D1A23"/>
<path d="M400.626 69.6959L415.415 91.1135C415.65 91.4665 416.236 91.5842 416.589 91.3489L446.165 68.0484C446.517 67.813 446.635 67.2246 446.283 66.8716L431.494 45.454C431.26 45.101 430.673 44.9833 430.321 45.2186L400.744 68.5191C400.509 68.8722 400.392 69.3429 400.626 69.6959Z" fill="#7B5DDF"/>
<path d="M397.34 82.7583L343.82 110.06C337.952 113.119 330.675 111.707 326.215 106.765C322.107 102.175 321.286 95.4676 324.22 89.9367L352.858 36.7457C356.379 31.0971 363.89 29.685 369.172 33.6861C373.867 37.2164 375.158 43.8065 372.106 48.749L347.341 88.8776L392.88 65.4594L397.34 82.7583Z" fill="white"/>
<path d="M337.248 112.06C333.023 112.06 328.915 110.295 325.981 107C321.755 102.293 320.934 95.3499 323.985 89.7013L352.623 36.5103C354.384 33.686 357.2 31.8031 360.369 31.2147C363.538 30.6264 366.942 31.3324 369.524 33.333C374.453 36.981 375.745 43.8064 372.576 48.9843L348.633 87.7007L392.763 64.9887C392.88 64.871 392.998 64.871 393.115 64.9887C393.232 64.9887 393.35 65.1063 393.35 65.3417L397.692 82.6405C397.692 82.8759 397.692 82.9936 397.458 83.1112L343.938 110.413C341.825 111.59 339.478 112.06 337.248 112.06ZM362.599 31.9208C361.895 31.9208 361.191 32.0385 360.487 32.1562C357.435 32.7446 354.97 34.5098 353.327 37.0987L324.69 90.2897C321.873 95.5852 322.577 102.058 326.567 106.529C330.91 111.354 337.835 112.649 343.586 109.707L396.753 82.5228L392.645 66.1654L347.576 89.2306C347.459 89.3482 347.224 89.2306 347.107 89.1129C346.989 88.9952 346.989 88.7598 347.107 88.5245L371.871 48.3959C374.806 43.571 373.632 37.2164 369.055 33.9214C367.177 32.6269 364.947 31.9208 362.599 31.9208Z" fill="#1D1A23"/>
<path d="M436.071 74.0497L434.428 83.4641C434.311 84.0524 433.959 84.5232 433.489 84.8762C431.963 85.8176 429.851 84.5232 430.203 82.758L431.963 73.226C432.081 72.5199 432.55 71.9315 433.255 71.6961C434.663 71.1077 436.306 72.4022 436.071 74.0497Z" fill="#E8926D"/>
<path d="M432.198 76.521L430.32 86.759C430.203 87.3474 429.851 87.9358 429.264 88.1712H429.147C427.386 89.2303 425.156 87.8182 425.508 85.9353L427.386 75.6972C427.503 74.9911 428.09 74.4027 428.795 74.0497C430.672 73.3436 432.433 74.7558 432.198 76.521Z" fill="#E8926D"/>
<path d="M426.8 81.6991L425.391 88.8776C425.274 89.3483 425.039 89.7013 424.57 89.9367C423.161 90.6428 421.401 89.7013 421.635 88.2892L423.044 80.9931C423.161 80.5224 423.513 80.0516 424.1 79.8163C425.509 79.4632 427.034 80.5223 426.8 81.6991Z" fill="#E8926D"/>
<path d="M423.161 85.7004L421.87 91.702C421.753 92.0551 421.518 92.4081 421.048 92.5258C419.757 93.1142 417.88 92.2904 418.114 91.1136L419.405 85.112C419.523 84.6413 419.875 84.2883 420.462 84.1706C421.87 83.8175 423.396 84.6413 423.161 85.7004Z" fill="#E8926D"/>
<path d="M403.807 22.2212C405.374 12.7313 399.853 3.91035 391.476 2.51916C383.098 1.12797 375.036 7.69333 373.468 17.1833C371.901 26.6733 377.421 35.4942 385.799 36.8854C394.177 38.2766 402.239 31.7112 403.807 22.2212Z" fill="#E8926D"/>
<path d="M377.857 18.0346C377.857 18.0346 375.744 35.0981 378.326 41.0997L365.064 26.5075L367.176 23.4478L363.303 24.507L359.43 20.1528C359.43 20.1528 366.59 16.2694 369.054 14.5042C371.519 12.739 381.261 3.67776 384.547 3.56008C387.833 3.4424 376.214 13.7982 376.214 13.7982L377.857 18.0346Z" fill="#FFB6C8"/>
<path d="M382.435 14.3867C382.435 14.3867 388.068 20.7414 394.406 12.5038L394.523 15.9165L399.453 19.7999L401.331 15.2104L400.861 20.9767L404.969 25.6839C404.969 25.6839 404.617 15.9165 403.091 12.8569C402.27 11.0917 398.279 6.85523 398.279 6.85523L389.359 6.73755L382.435 14.3867Z" fill="#FFB6C8"/>
<path d="M397.105 31.9209L399.687 35.6866L394.875 34.8629L397.105 31.9209Z" fill="#E8926D"/>
<path d="M397.692 31.0972C397.692 31.0972 401.8 23.4481 393.819 20.2708C393.819 20.2708 390.298 31.0972 397.692 31.0972Z" fill="white"/>
<path d="M392.059 36.5102C391.12 36.7455 390.181 36.9809 389.125 37.0986L390.533 30.6262L392.059 36.5102Z" fill="#7B5DDF"/>
<path d="M397.692 11.4448L379.383 15.0929L378.796 6.97301C382.2 3.56031 386.894 1.79513 391.589 2.50121C396.988 3.44264 401.213 7.44373 403.091 12.7393L397.692 11.4448Z" fill="#FFB6C8"/>
<mask id="mask2_147_1030" style="mask-type:luminance" maskUnits="userSpaceOnUse" x="392" y="20" width="7" height="12">
<path d="M397.692 31.0972C397.692 31.0972 401.8 23.4481 393.819 20.2708C393.819 20.2708 390.298 31.0972 397.692 31.0972Z" fill="white"/>
</mask>
<g mask="url(#mask2_147_1030)">
<path d="M396.636 32.5095C398.839 32.5095 400.626 30.7182 400.626 28.5084C400.626 26.2987 398.839 24.5073 396.636 24.5073C394.432 24.5073 392.645 26.2987 392.645 28.5084C392.645 30.7182 394.432 32.5095 396.636 32.5095Z" fill="#1D1A23"/>
</g>
<path d="M400.979 24.7425C400.627 24.7425 400.51 24.5071 400.51 24.2718C400.744 22.9773 398.866 21.2121 398.162 20.7414C397.927 20.6237 397.927 20.2707 398.044 20.153C398.162 19.9176 398.514 19.9176 398.631 20.0353C398.749 20.153 401.801 22.3889 401.331 24.5071C401.331 24.5071 401.214 24.7425 400.979 24.7425Z" fill="#1D1A23"/>
<path d="M375.744 13.2102C376.683 10.7389 379.383 9.56215 381.613 10.6213C383.843 11.6804 384.899 14.6223 383.843 17.0936C382.904 19.5649 380.204 20.7417 377.974 19.6825C375.862 18.6234 374.805 15.6815 375.744 13.2102Z" fill="#E8926D"/>
<path d="M381.026 18.0349C380.791 18.0349 380.556 17.9172 380.556 17.6818L380.087 12.1509C380.087 11.9155 380.204 11.6802 380.439 11.6802C380.674 11.6802 380.909 11.7979 380.909 12.0332L381.378 17.5641C381.496 17.7995 381.261 18.0349 381.026 18.0349Z" fill="#1D1A23"/>
<path d="M377.857 16.5047C377.622 16.5047 377.388 16.2693 377.388 16.034C377.388 15.7986 377.622 15.5632 377.857 15.5632L380.792 15.4456C381.027 15.4456 381.262 15.6809 381.262 15.9163C381.262 16.1516 381.027 16.387 380.792 16.387L377.857 16.5047Z" fill="#1D1A23"/>
<path d="M421.635 261.04L433.02 287.047L418.584 291.755L405.086 267.866L421.635 261.04Z" fill="#DCD3F9"/>
<path d="M360.017 205.145L374.923 184.786L388.185 198.084L372.81 215.853L360.017 205.145Z" fill="#DCD3F9"/>
<path d="M414.945 289.754L418.349 303.287L414.828 321.292H464.944L465.883 315.173C466.235 312.701 464.592 310.348 462.127 309.995C455.437 309.053 442.996 306.229 438.302 297.521C437.48 295.991 437.715 283.988 437.715 283.988L414.945 289.754Z" fill="#FEA419"/>
<path d="M365.885 197.613C365.768 197.613 365.651 197.613 365.651 197.495C365.416 197.378 365.416 197.025 365.533 196.907L383.138 173.018C383.256 172.783 383.608 172.783 383.725 172.901C383.96 173.018 383.96 173.371 383.843 173.489L366.237 197.378C366.12 197.495 366.003 197.613 365.885 197.613Z" fill="#1D1A23"/>
<path d="M376.566 211.97C376.449 211.97 376.331 211.97 376.331 211.852C376.097 211.735 376.097 211.382 376.331 211.264L392.059 193.259C392.176 193.024 392.528 193.024 392.645 193.259C392.88 193.377 392.88 193.73 392.645 193.847L376.918 211.852C376.801 211.97 376.683 211.97 376.566 211.97Z" fill="#1D1A23"/>
<path d="M362.717 198.672L354.736 212.441L341.825 217.736L364.947 264.22L370.111 262.572C372.458 261.866 373.867 259.277 373.045 256.924C370.932 250.451 364.712 234.8 370.463 226.68C371.519 225.268 379.735 214.441 379.735 214.441L362.717 198.672Z" fill="#FEA419"/>
<path d="M465.531 317.879H415.65C415.415 317.879 415.18 317.644 415.18 317.409C415.18 317.173 415.415 316.938 415.65 316.938H465.531C465.766 316.938 466 317.173 466 317.409C466 317.762 465.766 317.879 465.531 317.879Z" fill="#1D1A23"/>
<path d="M367.998 263.631C367.881 263.631 367.646 263.513 367.646 263.396L345.816 216.089C345.698 215.853 345.816 215.618 346.05 215.5C346.285 215.383 346.52 215.5 346.637 215.736L368.468 263.043C368.585 263.278 368.468 263.513 368.233 263.631C368.115 263.631 367.998 263.631 367.998 263.631Z" fill="#1D1A23"/>
<path d="M352.036 228.916C351.919 228.916 351.919 228.916 351.801 228.798C351.567 228.681 351.567 228.445 351.684 228.21L368.116 203.615C368.233 203.38 368.468 203.38 368.702 203.497C368.937 203.615 368.937 203.85 368.82 204.086L352.388 228.681C352.271 228.798 352.153 228.916 352.036 228.916Z" fill="#1D1A23"/>
<path d="M427.621 317.88C427.387 317.88 427.269 317.762 427.152 317.526L422.105 287.871C422.105 287.636 422.222 287.401 422.457 287.401C422.692 287.401 422.927 287.518 422.927 287.754L427.973 317.409C428.091 317.644 427.856 317.88 427.621 317.88Z" fill="#1D1A23"/>
<path d="M435.837 68.6365C435.719 68.6365 435.602 68.5188 435.485 68.4012L426.682 55.3388C426.565 55.1034 426.565 54.8681 426.799 54.7504C427.034 54.6327 427.269 54.6327 427.386 54.8681L436.189 67.9305C436.306 68.1658 436.306 68.4012 436.071 68.5189C435.954 68.5189 435.954 68.6365 435.837 68.6365Z" fill="#FFB6C8"/>
<path d="M433.02 70.9903C432.902 70.9903 432.785 70.8726 432.668 70.7549L423.865 57.6926C423.748 57.4572 423.748 57.2218 423.983 57.1042C424.217 56.9865 424.452 56.9865 424.569 57.2218L433.372 70.2842C433.489 70.5196 433.489 70.7549 433.255 70.8726C433.255 70.9903 433.137 70.9903 433.02 70.9903Z" fill="#FFB6C8"/>
<path d="M415.18 84.2881C415.062 84.2881 414.945 84.1704 414.828 84.0527L407.199 73.1086C407.081 72.8732 407.081 72.6378 407.316 72.5202C407.551 72.4025 407.786 72.4025 407.903 72.6379L415.532 83.582C415.649 83.8174 415.649 84.0527 415.414 84.1704C415.414 84.2881 415.297 84.2881 415.18 84.2881Z" fill="#FFB6C8"/>
</svg>
