<svg width="24" height="24" viewBox="0 0 24 24" fill="none" xmlns="http://www.w3.org/2000/svg">
<g id="person">
<path id="Vector" d="M5.52432 21H18.4757C20.186 21 21 20.5141 21 19.4449C21 16.8985 17.5896 13.2149 12.0051 13.2149C6.41041 13.2149 3 16.8985 3 19.4449C3 20.5141 3.81396 21 5.52432 21ZM5.04006 19.5324C4.77217 19.5324 4.65884 19.4644 4.65884 19.2603C4.65884 17.6566 7.27589 14.6825 12.0051 14.6825C16.7241 14.6825 19.3411 17.6566 19.3411 19.2603C19.3411 19.4644 19.2381 19.5324 18.9702 19.5324H5.04006ZM12.0051 12C14.4573 12 16.4562 9.94925 16.4562 7.44169C16.4562 4.95357 14.4677 3 12.0051 3C9.56323 3 7.55409 4.99244 7.55409 7.46113C7.55409 9.95897 9.55293 12 12.0051 12ZM12.0051 10.5324C10.5008 10.5324 9.21293 9.18143 9.21293 7.46113C9.21293 5.76998 10.4802 4.4676 12.0051 4.4676C13.5403 4.4676 14.7974 5.74083 14.7974 7.44169C14.7974 9.162 13.5197 10.5324 12.0051 10.5324Z" fill="#1D1A23"/>
</g>
</svg>
