<svg width="24" height="24" viewBox="0 0 24 24" fill="none" xmlns="http://www.w3.org/2000/svg">
<g id="search_input/search">
<path id="Vector" d="M2 10.0892C2 14.5494 5.66428 18.1784 10.1679 18.1784C11.9488 18.1784 13.5763 17.6108 14.9171 16.6579L19.953 21.6554C20.1883 21.8885 20.4954 22 20.823 22C21.519 22 22 21.483 22 20.8039C22 20.4795 21.8772 20.1855 21.6622 19.9726L16.6571 14.9853C17.7114 13.627 18.3357 11.9341 18.3357 10.0892C18.3357 5.62899 14.6715 2 10.1679 2C5.66428 2 2 5.62899 2 10.0892ZM3.75026 10.0892C3.75026 6.58186 6.62642 3.7334 10.1679 3.7334C13.7093 3.7334 16.5855 6.58186 16.5855 10.0892C16.5855 13.5965 13.7093 16.445 10.1679 16.445C6.62642 16.445 3.75026 13.5965 3.75026 10.0892Z" fill="#A7A4B4"/>
</g>
</svg>
